<?xml version="1.0" standalone="no"?>
<!DOCTYPE svg PUBLIC "-//W3C//DTD SVG 20010904//EN"
 "http://www.w3.org/TR/2001/REC-SVG-20010904/DTD/svg10.dtd">
<svg version="1.0" xmlns="http://www.w3.org/2000/svg"
 width="1223.000000pt" height="1223.000000pt" viewBox="0 0 1223.000000 1223.000000"
 preserveAspectRatio="xMidYMid meet">
<metadata>
Created by potrace 1.14, written by Peter Selinger 2001-2017
</metadata>
<g transform="translate(0.000000,1223.000000) scale(0.100000,-0.100000)"
fill="#000000" stroke="none">
<path d="M4725 10929 c-4 -6 -5 -12 -2 -15 2 -3 7 2 10 11 7 17 1 20 -8 4z"/>
<path d="M4755 10921 c3 -6 -3 -15 -14 -21 -16 -8 -22 -6 -30 7 -6 10 -11 13
-11 8 0 -6 5 -16 12 -23 9 -9 8 -12 -4 -12 -9 0 -18 6 -21 13 -4 10 -7 10 -18
0 -7 -7 -21 -13 -31 -13 -10 0 -18 -5 -18 -11 0 -5 5 -7 12 -3 6 4 8 3 4 -4
-3 -6 -1 -12 6 -15 7 -2 5 -3 -4 -2 -9 2 -26 -4 -37 -12 -12 -8 -21 -10 -21
-5 0 5 9 13 20 18 14 7 17 13 10 24 -8 13 -11 13 -22 1 -11 -12 -10 -13 2 -7
8 4 6 0 -4 -8 -11 -9 -25 -16 -30 -16 -6 0 -4 5 4 11 16 12 17 12 -35 -6 -17
-6 -16 -3 5 15 l25 21 -25 -12 c-14 -7 -28 -12 -33 -11 -4 1 -2 -7 5 -17 8
-14 16 -17 24 -10 8 6 13 5 17 -4 3 -9 -5 -12 -32 -11 -52 3 -53 3 -47 12 3 5
-1 9 -9 9 -8 0 -11 -5 -8 -10 4 -6 0 -8 -10 -4 -8 3 -21 -1 -28 -9 -10 -13
-15 -12 -38 1 l-26 16 24 -20 c12 -12 28 -18 35 -14 6 4 4 -1 -3 -11 -13 -16
-13 -17 4 -14 10 1 19 -3 21 -10 1 -7 0 -8 -3 -2 -3 6 -15 4 -33 -5 -19 -10
-31 -11 -35 -5 -4 6 -11 8 -16 4 -6 -3 -3 -12 8 -21 17 -13 17 -13 -3 -4 -17
8 -25 6 -39 -9 -16 -17 -19 -18 -41 -4 -14 10 -21 22 -18 32 5 14 3 14 -9 -1
-16 -19 -12 -51 4 -41 5 3 9 0 9 -6 0 -7 -7 -9 -16 -6 -9 3 -18 6 -20 6 -3 0
-2 5 1 10 3 6 -1 10 -9 10 -19 0 -21 -11 -5 -27 8 -8 7 -13 -2 -18 -7 -5 -10
-4 -6 2 4 6 -4 18 -18 27 -29 19 -36 20 -33 4 2 -8 -10 -13 -29 -14 -18 -1
-33 2 -33 7 0 6 5 7 12 3 7 -5 8 -3 3 6 -6 10 -11 9 -22 -6 -8 -10 -16 -18
-18 -16 -14 7 -27 0 -35 -20 -6 -16 -9 -18 -9 -6 -1 9 -4 18 -8 21 -5 2 -1 2
7 0 11 -3 12 -1 4 7 -16 16 -58 -6 -50 -26 8 -22 -2 -17 -15 7 -9 17 -8 20 3
14 7 -4 2 2 -11 13 -25 20 -58 23 -54 4 2 -6 -4 -9 -12 -6 -9 4 -22 1 -30 -6
-17 -14 -31 -7 -20 9 3 6 11 9 16 6 5 -4 9 -1 9 4 0 6 -7 11 -15 11 -16 0 -34
-29 -28 -47 2 -6 -1 -14 -6 -18 -7 -4 -8 0 -4 11 5 13 3 15 -8 9 -11 -7 -12
-6 -3 6 8 9 8 21 3 34 -9 18 -9 18 -5 -2 3 -18 0 -23 -17 -23 -18 0 -20 2 -7
11 13 9 12 10 -2 5 -12 -4 -18 0 -19 12 0 10 -3 12 -6 4 -2 -6 -10 -10 -16 -6
-7 3 -5 0 3 -8 21 -18 22 -35 4 -42 -12 -4 -15 -2 -10 9 3 9 -3 19 -14 25 -23
13 -40 13 -20 0 8 -5 11 -12 7 -16 -4 -4 -13 -2 -19 4 -7 7 -20 12 -30 12 -23
0 -23 17 0 23 9 2 2 4 -15 4 -18 0 -33 -4 -33 -9 0 -5 -4 -6 -10 -3 -5 3 -10
1 -10 -4 0 -14 13 -14 28 1 9 9 12 9 12 0 0 -7 -7 -15 -15 -18 -8 -4 -15 -14
-15 -23 0 -13 2 -13 9 -2 7 10 12 8 25 -10 9 -13 16 -17 16 -10 0 7 6 11 14 8
10 -4 13 -1 9 9 -4 11 -9 12 -18 4 -8 -7 -16 -7 -19 -2 -9 15 23 23 45 12 11
-6 23 -9 27 -6 4 2 8 -5 9 -17 0 -12 -1 -16 -4 -9 -3 6 -9 12 -15 12 -6 0 -8
-7 -5 -15 4 -8 1 -17 -5 -21 -6 -4 -8 -3 -5 3 4 6 0 13 -7 16 -10 4 -13 0 -11
-14 5 -27 -9 -24 -25 6 -7 14 -17 25 -22 25 -12 0 -10 -14 4 -28 14 -14 8 -22
-26 -28 -15 -2 -26 0 -26 6 0 6 4 9 9 6 8 -5 24 34 18 41 -2 1 -17 -11 -35
-28 -18 -16 -32 -26 -32 -21 0 5 10 17 23 26 14 11 16 15 5 12 -12 -4 -15 -1
-11 11 4 11 2 14 -5 9 -7 -4 -12 -2 -12 3 0 12 27 10 48 -2 19 -12 15 18 -5
34 -10 8 -14 9 -10 2 4 -6 3 -14 -3 -18 -5 -3 -10 -1 -10 5 0 6 -4 8 -10 5 -5
-3 -10 -2 -10 4 0 5 5 12 10 14 6 3 5 4 -2 3 -7 -2 -12 -11 -12 -20 1 -9 -5
-16 -13 -16 -9 0 -11 5 -7 13 6 9 5 9 -7 0 -19 -15 -55 -10 -51 8 3 10 0 10
-13 -1 -12 -10 -13 -16 -4 -27 9 -10 9 -17 1 -25 -8 -8 -19 -6 -39 7 -20 13
-24 14 -16 3 7 -8 9 -19 5 -23 -4 -5 0 -5 8 0 12 6 12 5 3 -5 -13 -14 -37 -4
-27 12 4 7 2 8 -5 4 -6 -4 -8 -12 -5 -18 5 -7 1 -9 -9 -5 -10 3 -17 2 -17 -4
0 -5 7 -12 15 -15 19 -8 19 -21 0 -21 -8 0 -11 5 -8 10 4 6 -1 8 -11 4 -10 -4
-15 -3 -11 3 3 6 2 10 -2 10 -5 0 -14 -9 -21 -21 -12 -19 -11 -20 7 -14 10 3
22 1 26 -4 4 -7 -1 -8 -11 -4 -13 5 -15 3 -9 -7 6 -10 4 -10 -10 -3 -10 6 -27
8 -38 5 -14 -3 -18 -1 -13 6 4 7 3 12 -3 12 -5 0 -13 -9 -16 -20 -4 -11 -10
-18 -14 -15 -5 2 -24 -11 -43 -29 -28 -27 -38 -32 -48 -23 -10 9 -11 9 -5 -2
6 -10 4 -13 -6 -9 -9 4 -14 -2 -15 -18 -1 -13 3 -24 9 -24 17 0 2 -10 -21 -15
-12 -2 -21 -1 -21 3 1 4 1 14 0 22 -1 13 -2 13 -11 0 -5 -8 -15 -15 -22 -15
-7 0 -11 -9 -10 -20 3 -15 1 -17 -11 -7 -11 10 -18 8 -33 -9 -12 -13 -27 -19
-41 -16 -12 2 -20 0 -17 -4 3 -5 11 -9 19 -9 8 0 12 -8 10 -19 -3 -14 1 -18
11 -14 8 3 14 0 14 -5 0 -6 -9 -9 -20 -7 -11 2 -21 0 -21 -6 -1 -5 -2 -15 -3
-21 0 -7 -14 -12 -32 -12 -25 1 -30 -2 -29 -20 3 -34 -5 -48 -20 -36 -9 8 -15
8 -20 0 -3 -5 -12 -10 -18 -10 -7 0 -4 7 6 15 11 7 25 11 31 9 7 -3 13 2 13
10 0 8 -4 13 -8 10 -4 -2 -11 0 -14 6 -5 8 -11 7 -21 -1 -7 -6 -12 -15 -9 -19
3 -4 -2 -13 -9 -19 -10 -8 -16 -9 -21 -1 -3 5 -12 10 -18 10 -8 0 -8 -3 1 -9
11 -7 10 -10 -3 -15 -9 -3 -22 -3 -27 1 -7 3 -8 1 -4 -6 4 -6 2 -20 -5 -29
-12 -14 -10 -14 8 1 14 12 23 15 28 8 3 -6 3 -11 -1 -11 -3 0 -1 -7 6 -15 13
-15 5 -39 -11 -30 -5 4 -6 -2 -2 -11 5 -13 3 -16 -9 -11 -22 8 -29 -2 -18 -24
8 -14 4 -22 -18 -37 -15 -10 -34 -17 -42 -14 -11 3 -9 -2 5 -19 12 -14 13 -19
4 -11 -17 13 -53 12 -66 -3 -5 -4 -3 -5 3 -2 7 4 14 -2 17 -14 5 -19 4 -19
-16 -6 -12 9 -21 21 -19 27 1 6 -3 8 -9 5 -8 -5 -8 -10 0 -18 17 -17 13 -26
-10 -22 -12 3 -19 1 -15 -2 3 -4 -8 -13 -25 -20 -28 -12 -33 -33 -6 -33 7 0 6
4 -3 10 -8 5 -10 10 -5 10 6 0 16 -4 24 -9 11 -7 9 -10 -8 -16 -12 -4 -28 -2
-35 4 -9 8 -13 7 -13 -4 0 -8 3 -13 6 -11 3 2 15 0 26 -5 18 -7 18 -8 -5 -9
-14 -2 -29 -2 -33 -1 -5 1 -6 -3 -2 -9 3 -5 0 -13 -9 -16 -16 -6 -18 -44 -1
-44 5 0 -2 -8 -18 -18 -15 -10 -24 -22 -20 -26 4 -4 0 -4 -9 -1 -13 5 -21 -2
-33 -27 -8 -18 -13 -26 -11 -17 2 9 -2 16 -9 16 -7 0 -12 -8 -10 -18 2 -10 -1
-22 -7 -25 -6 -4 -8 -3 -5 3 4 6 1 13 -6 16 -10 4 -12 -5 -10 -32 2 -24 0 -31
-7 -21 -5 8 -6 18 -3 24 3 5 2 6 -4 3 -6 -4 -9 -18 -8 -32 2 -14 -1 -23 -5
-20 -5 3 -16 -7 -25 -22 -10 -18 -14 -20 -11 -8 3 11 2 26 -3 33 -5 9 -9 2
-10 -20 -3 -55 -4 -57 -13 -52 -5 3 -6 9 -3 14 3 4 -2 10 -10 13 -11 5 -12 1
-5 -18 6 -16 6 -27 -2 -31 -6 -4 -8 -3 -5 3 4 6 0 16 -7 22 -12 10 -13 8 -9
-11 4 -13 11 -27 17 -31 7 -5 6 -7 -4 -6 -29 3 -41 -1 -35 -11 3 -5 2 -10 -4
-10 -5 0 -12 6 -14 13 -4 9 -6 9 -6 0 -1 -6 4 -15 9 -18 5 -3 10 -11 10 -17 0
-6 -6 -6 -15 2 -13 11 -14 10 -9 -4 3 -9 1 -16 -5 -16 -6 0 -11 5 -11 12 0 6
-2 9 -5 6 -10 -10 7 -38 19 -31 6 3 7 2 3 -2 -4 -5 -20 -11 -35 -13 -15 -2
-31 -8 -37 -14 -7 -7 -2 -8 15 -4 14 3 19 3 12 0 -6 -3 -10 -10 -7 -14 3 -5
-3 -7 -12 -5 -10 1 -32 -9 -48 -23 -17 -14 -22 -23 -12 -19 9 3 17 2 17 -3 0
-9 -15 -14 -33 -11 -5 1 -6 -3 -2 -9 4 -6 15 -8 26 -5 10 4 19 2 19 -3 0 -6
-13 -9 -30 -8 -23 2 -27 -1 -18 -11 5 -7 15 -10 21 -6 6 3 7 1 3 -5 -4 -6 -13
-9 -20 -6 -7 3 -19 -2 -26 -11 -7 -8 -9 -15 -4 -15 5 0 2 -5 -6 -11 -13 -9
-12 -10 3 -5 11 3 17 0 17 -10 0 -8 5 -12 10 -9 6 4 2 -8 -9 -26 -11 -18 -17
-37 -14 -42 4 -6 -3 -8 -16 -4 -19 5 -20 3 -9 -11 11 -14 10 -15 -7 -8 -16 6
-17 5 -8 -5 9 -9 15 -9 26 0 11 9 17 7 28 -6 13 -17 13 -17 -5 -3 -18 14 -19
13 -13 -2 3 -10 2 -20 -3 -23 -5 -3 -6 -13 -3 -23 5 -14 3 -15 -7 -5 -11 10
-11 15 0 28 15 18 4 20 -14 3 -9 -10 -9 -18 -1 -35 7 -13 14 -22 16 -20 2 1
-2 -3 -10 -10 -8 -7 -18 -10 -24 -6 -6 3 -7 1 -3 -5 4 -7 2 -12 -5 -12 -7 0
-9 -3 -6 -6 4 -4 15 -1 24 7 15 11 16 11 6 -1 -7 -8 -13 -18 -13 -23 0 -4 6
-5 13 -1 6 4 3 -3 -8 -15 -11 -13 -27 -20 -37 -18 -10 3 -16 1 -13 -3 3 -5 -8
-17 -24 -26 -17 -10 -28 -21 -25 -25 2 -4 0 -10 -5 -14 -6 -3 -7 -13 -4 -22 4
-11 3 -14 -5 -9 -7 4 -12 3 -12 -2 0 -19 14 -21 26 -4 7 9 8 19 4 22 -5 3 0
17 10 30 l19 25 -2 -25 c-1 -14 -8 -35 -14 -46 -7 -12 -9 -25 -5 -29 4 -5 2
-5 -4 -2 -7 4 -18 -1 -25 -10 -12 -15 -12 -16 6 -10 18 7 19 6 3 -6 -10 -8
-14 -18 -10 -22 4 -5 2 -6 -3 -2 -6 3 -17 2 -25 -3 -15 -9 -40 5 -40 22 0 6 6
6 14 -1 19 -16 43 -4 42 22 -1 16 -8 22 -24 23 -21 1 -22 0 -7 -22 16 -25 8
-33 -13 -12 -14 14 -14 13 -16 -23 -2 -22 2 -25 29 -24 21 1 32 -3 32 -12 0
-7 -4 -13 -9 -13 -5 0 -6 -5 -3 -10 4 -6 1 -9 -6 -8 -19 5 -22 -20 -2 -25 12
-3 13 -5 3 -6 -22 -1 -48 19 -32 26 6 2 10 9 6 14 -3 5 0 8 7 7 6 -2 13 2 16
8 2 6 -4 11 -13 11 -9 0 -19 -9 -22 -19 -2 -10 -7 -16 -11 -14 -11 7 -36 -12
-28 -21 5 -4 12 -1 17 7 6 10 10 11 10 3 0 -7 -12 -19 -27 -27 -16 -8 -24 -15
-20 -16 5 0 17 5 28 10 15 9 19 7 19 -5 0 -9 -5 -13 -10 -10 -6 3 -13 -1 -16
-10 -5 -13 -9 -13 -23 -3 -14 12 -15 11 -2 -5 10 -13 17 -15 27 -6 8 6 14 8
14 3 0 -5 7 0 15 10 12 16 12 22 2 35 -11 14 -10 14 6 2 15 -12 16 -16 3 -35
-10 -16 -11 -28 -4 -42 7 -14 5 -13 -9 4 -19 24 -33 21 -33 -7 0 -14 2 -14 10
-1 16 24 11 2 -6 -33 -17 -33 -32 -47 -49 -47 -5 0 -4 4 3 9 11 7 11 9 -2 14
-17 7 -32 -8 -17 -18 6 -3 8 -12 4 -20 -3 -8 0 -15 7 -15 6 0 9 4 6 9 -3 4 9
7 27 6 18 -1 39 3 47 9 13 9 13 9 2 -6 -8 -10 -22 -15 -38 -12 -18 3 -23 1
-18 -7 4 -7 3 -10 -2 -6 -5 3 -20 0 -33 -7 -15 -9 -20 -16 -12 -20 6 -4 11 -1
11 6 0 10 3 9 9 -1 6 -10 5 -18 -4 -25 -10 -8 -11 -22 -5 -51 4 -22 8 -34 9
-26 0 8 4 12 7 8 7 -7 -17 -44 -29 -45 -4 0 -13 -3 -20 -6 -6 -2 -3 -4 8 -3
11 2 25 5 30 9 6 3 10 -4 10 -16 0 -13 -5 -23 -12 -23 -7 0 -10 3 -8 7 2 3 -5
7 -16 7 -17 2 -18 0 -4 -14 14 -14 14 -17 -2 -37 -17 -20 -17 -20 1 -6 18 14
18 13 12 -10 -5 -17 -4 -20 2 -12 7 11 10 11 15 -3 5 -11 3 -14 -5 -9 -8 5 -9
2 -5 -10 5 -13 1 -19 -13 -23 -11 -3 -17 -9 -14 -14 3 -5 10 -6 16 -3 7 5 8 2
3 -6 -6 -10 -4 -12 11 -6 14 5 16 4 8 -4 -9 -9 -17 -9 -33 -1 -15 9 -26 9 -39
1 -15 -9 -14 -10 5 -5 18 5 21 2 18 -15 -2 -11 0 -18 6 -15 5 4 6 12 2 18 -3
7 3 4 14 -6 11 -9 23 -15 26 -12 4 3 2 -1 -4 -8 -9 -9 -12 -9 -16 1 -3 6 -9 9
-14 6 -6 -4 -6 -11 1 -19 9 -11 8 -19 -3 -35 -13 -18 -15 -19 -21 -5 -3 9 -11
13 -17 9 -8 -5 -8 -8 0 -14 9 -5 8 -10 -2 -18 -10 -9 -13 -5 -13 21 1 23 -4
32 -17 33 -12 1 -13 1 -2 -3 8 -2 15 -9 15 -15 0 -5 -6 -8 -13 -5 -8 3 -14 -4
-15 -16 -1 -18 1 -19 9 -7 8 12 10 12 7 1 -2 -8 -12 -15 -22 -17 -13 -2 -16 2
-12 14 5 15 5 15 -7 0 -9 -12 -17 -14 -25 -8 -9 7 -9 7 -2 -2 5 -7 10 -20 10
-29 0 -10 5 -19 12 -21 8 -3 6 -7 -5 -11 -9 -3 -16 -3 -16 1 3 19 -2 22 -16 8
-9 -8 -21 -14 -28 -12 -7 1 -9 1 -4 -1 4 -3 4 -10 0 -16 -4 -7 1 -6 11 2 13
11 19 12 29 2 9 -10 8 -11 -7 -5 -14 5 -17 4 -12 -5 4 -6 4 -11 -1 -10 -21 4
-34 -2 -27 -13 4 -7 3 -8 -4 -4 -13 8 -52 -14 -52 -28 0 -6 5 -5 12 2 15 15
28 15 28 1 0 -5 -4 -8 -9 -5 -11 7 -33 -19 -24 -28 4 -4 0 -4 -10 0 -9 3 -15
9 -12 13 2 4 -2 8 -10 8 -12 0 -12 -4 2 -20 16 -18 16 -20 1 -14 -20 7 -31 -2
-18 -17 6 -8 3 -12 -10 -13 -13 -1 -17 3 -13 15 4 14 3 14 -5 3 -6 -8 -19 -16
-29 -17 -9 -2 -19 -8 -21 -14 -2 -5 -7 -8 -11 -6 -4 3 -6 -12 -4 -32 1 -24 -1
-32 -6 -23 -5 8 -7 21 -4 30 4 14 3 14 -6 1 -6 -8 -11 -11 -11 -6 0 5 -6 4
-12 -1 -7 -6 -21 -9 -30 -8 -10 2 -18 -1 -18 -7 0 -6 7 -8 15 -5 8 4 17 2 20
-2 7 -13 -32 -20 -43 -9 -6 6 -12 6 -17 -1 -3 -6 -3 -11 2 -10 20 3 27 -2 13
-11 -10 -6 -21 -4 -35 8 -20 17 -20 17 -1 -5 16 -19 22 -21 40 -11 11 7 29 13
38 15 16 3 16 1 -2 -17 -11 -11 -20 -24 -20 -29 0 -5 -9 -11 -19 -14 -14 -3
-18 -1 -14 9 3 7 10 12 15 11 6 -1 13 4 15 11 4 11 1 12 -16 3 -12 -7 -26 -9
-31 -6 -5 3 -12 0 -16 -6 -4 -7 -3 -9 4 -5 6 3 13 2 17 -4 3 -5 -3 -10 -14
-10 -11 0 -22 -4 -26 -10 -3 -5 -13 -7 -23 -4 -14 5 -14 4 -2 -4 8 -6 18 -8
22 -6 4 3 8 2 9 -3 0 -4 2 -19 3 -33 2 -14 -2 -28 -7 -32 -18 -11 -28 2 -16
23 6 12 8 24 4 27 -9 9 -40 -14 -37 -28 2 -7 -3 -10 -12 -7 -10 4 -13 1 -9 -9
4 -11 9 -12 19 -3 8 6 12 15 9 19 -3 4 2 11 10 14 13 4 13 2 5 -14 -5 -10 -7
-26 -4 -34 3 -9 1 -16 -6 -16 -6 0 -8 5 -4 11 4 7 0 9 -14 5 -23 -8 -41 16
-37 47 2 9 -1 15 -5 12 -9 -5 -6 -37 5 -54 3 -5 1 -12 -5 -16 -5 -3 -10 1 -10
9 0 8 -4 18 -10 21 -6 4 -7 -2 -1 -17 7 -18 3 -28 -16 -46 -13 -12 -21 -27
-18 -32 4 -6 -7 -15 -24 -21 -29 -10 -43 -37 -21 -40 6 -1 15 -3 20 -4 6 -1
15 -3 20 -4 6 0 10 -9 10 -18 0 -15 -2 -16 -10 -3 -11 18 -62 22 -75 6 -5 -7
-14 -14 -20 -16 -28 -7 -33 -13 -28 -28 3 -11 -4 -7 -17 8 -19 22 -20 23 -11
3 6 -12 19 -26 28 -31 17 -10 9 -36 -10 -29 -7 2 -20 0 -30 -5 -16 -8 -17 -7
-7 11 6 12 13 21 16 21 3 0 3 -4 0 -8 -2 -4 5 -9 16 -9 19 -2 19 -1 -4 20 -12
12 -25 18 -26 14 -2 -4 -11 -2 -20 5 -14 10 -14 9 1 -8 9 -11 14 -24 10 -27
-9 -9 -24 -9 -20 1 1 4 -3 8 -8 10 -6 1 -10 -3 -10 -9 0 -6 -9 -17 -19 -25
-11 -8 -15 -14 -9 -14 6 0 13 -7 17 -15 5 -13 2 -14 -15 -4 -15 8 -19 8 -15 0
4 -6 0 -11 -8 -11 -9 0 -16 -4 -16 -9 0 -5 11 -8 25 -5 14 2 25 0 25 -6 0 -6
-4 -9 -9 -5 -5 3 -12 1 -16 -5 -4 -6 -11 -8 -16 -4 -5 3 -18 0 -27 -7 -14 -11
-15 -11 -4 1 19 22 14 32 -8 13 -16 -14 -17 -20 -7 -32 11 -14 10 -14 -6 -2
-11 9 -15 21 -11 35 3 12 -5 4 -18 -17 -13 -21 -27 -35 -31 -31 -4 4 -7 3 -7
-3 0 -6 7 -14 16 -17 9 -3 12 -2 9 4 -4 6 -3 10 2 9 19 -3 27 2 14 10 -7 5 -9
11 -4 14 5 3 15 -3 22 -15 7 -11 8 -17 2 -13 -6 3 -14 -1 -17 -10 -4 -9 -12
-15 -18 -13 -6 2 -22 -7 -36 -20 -23 -23 -24 -24 -2 -13 26 14 30 4 6 -14 -16
-11 -16 -12 0 -18 10 -4 15 -3 11 3 -3 6 -1 10 4 10 6 0 11 -7 11 -15 0 -10
-7 -15 -18 -13 -10 2 -16 -2 -14 -10 1 -8 -2 -11 -8 -7 -6 3 -7 12 -4 18 5 9
3 9 -6 0 -10 -10 -11 -15 -1 -27 8 -10 9 -16 1 -21 -6 -4 -9 -1 -8 7 2 7 -3
12 -10 10 -8 -1 -11 2 -6 9 4 8 3 9 -4 5 -7 -4 -12 -1 -12 6 0 9 -3 9 -10 -2
-5 -8 -14 -15 -20 -15 -5 0 -10 -3 -10 -7 0 -5 0 -11 0 -15 0 -3 9 2 20 12 11
10 20 13 20 7 0 -7 -5 -12 -11 -12 -5 0 -8 -4 -5 -9 4 -5 -5 -8 -19 -6 -14 1
-23 0 -20 -3 2 -3 0 -11 -6 -19 -9 -10 -8 -13 0 -13 7 0 9 -5 6 -10 -4 -6 -10
-8 -15 -5 -4 3 -6 -4 -3 -15 3 -12 0 -20 -7 -20 -7 0 -10 -7 -6 -16 6 -15 4
-15 -11 -3 -11 9 -14 10 -9 2 4 -7 2 -13 -3 -13 -6 0 -11 -5 -11 -11 0 -5 6
-7 13 -4 6 4 4 0 -7 -9 -10 -8 -15 -20 -10 -27 4 -8 3 -10 -5 -5 -6 4 -14 0
-17 -8 -3 -9 -11 -13 -17 -9 -6 3 -7 1 -3 -6 4 -6 11 -9 16 -6 5 3 12 0 16 -6
4 -8 3 -9 -4 -5 -16 10 -34 -28 -20 -42 9 -9 9 -12 -2 -12 -9 0 -8 -5 6 -16
10 -8 14 -13 8 -10 -7 3 -15 -1 -18 -10 -3 -8 -2 -12 4 -9 6 3 10 1 10 -5 0
-6 4 -8 10 -5 6 3 7 -1 4 -9 -3 -9 -10 -14 -14 -11 -5 3 -12 1 -15 -5 -4 -6
-3 -10 2 -9 26 4 35 -1 24 -15 -9 -11 -9 -15 0 -18 8 -3 9 -9 4 -19 -15 -22
-16 -44 -2 -30 6 6 16 11 21 11 6 0 5 -4 -2 -8 -7 -5 -13 -24 -15 -43 -2 -20
-13 -45 -25 -57 -13 -13 -20 -27 -17 -32 3 -5 -3 -7 -14 -5 -15 3 -18 0 -14
-12 4 -11 2 -14 -5 -9 -6 3 -16 -3 -22 -14 -7 -14 -17 -19 -27 -16 -13 5 -14
4 -4 -8 11 -13 9 -15 -8 -11 -13 2 -21 -1 -21 -10 0 -8 -5 -17 -12 -21 -7 -5
-8 -3 -3 6 5 9 4 11 -4 6 -9 -6 -9 -11 1 -24 7 -9 9 -13 3 -10 -5 3 -19 -4
-30 -15 -11 -11 -13 -16 -5 -12 13 8 13 6 1 -8 -7 -9 -11 -24 -7 -32 3 -9 2
-14 -3 -10 -12 7 -41 -22 -41 -42 0 -12 -3 -13 -14 -4 -11 9 -14 9 -13 -1 0
-7 -1 -22 -2 -33 l-2 -20 -9 20 c-10 22 -13 -1415 -4 -1440 4 -8 10 -15 16
-15 5 0 6 5 3 10 -8 13 8 13 21 0 7 -7 11 -6 11 4 0 8 -3 13 -7 11 -3 -2 -6 6
-7 18 0 12 1 16 4 9 3 -6 10 -9 15 -6 7 4 8 2 4 -4 -4 -7 -3 -12 3 -12 6 0 7
-8 4 -17 -6 -17 -6 -17 10 -1 20 19 22 32 5 22 -7 -4 -10 -3 -5 1 4 5 -1 17
-10 28 -18 19 -17 19 5 6 12 -8 22 -17 22 -22 0 -4 5 -5 10 -2 6 4 7 11 4 17
-5 7 -2 8 7 2 30 -19 85 -23 81 -6 -1 7 5 15 13 18 8 4 15 11 15 16 0 6 -6 6
-14 -1 -9 -8 -16 -8 -20 -2 -4 5 -2 12 4 16 5 3 10 3 10 -2 0 -4 5 -1 10 7 8
12 10 12 10 1 0 -10 3 -11 14 -2 10 8 16 9 21 1 3 -5 1 -10 -5 -10 -6 0 -8 -5
-5 -10 4 -6 12 -4 22 5 14 15 14 17 -3 31 -17 13 -16 13 9 3 15 -7 26 -19 25
-27 -2 -8 5 -16 15 -18 15 -2 16 0 6 12 -10 12 -9 13 5 8 9 -3 16 -1 16 6 0 6
-4 9 -8 6 -12 -7 -38 12 -29 21 5 4 11 3 15 -3 4 -6 15 -10 24 -8 10 1 22 -5
28 -14 7 -12 9 -13 10 -3 0 11 3 11 15 1 13 -11 14 -10 9 6 -7 18 -6 18 17 -1
21 -18 22 -18 9 -1 -14 17 -13 18 7 12 12 -4 24 -2 27 3 4 6 14 7 23 4 10 -4
14 -2 9 5 -3 6 -1 14 5 18 6 4 16 0 21 -9 5 -9 15 -14 23 -11 18 7 20 -12 3
-22 -7 -4 -8 -3 -4 4 4 7 -1 10 -14 7 -14 -3 -18 0 -14 8 4 7 3 8 -2 4 -5 -5
-10 -13 -10 -18 -1 -5 -2 -12 -3 -16 0 -4 -8 2 -17 13 -15 19 -15 19 -5 -1 8
-16 5 -23 -12 -33 -19 -12 -19 -12 -2 -6 11 3 25 7 32 7 7 0 10 4 7 9 -3 4 0
8 6 8 7 0 9 -12 6 -30 -2 -16 1 -33 6 -36 7 -5 8 -2 3 7 -5 8 4 3 18 -10 15
-14 27 -27 27 -29 0 -3 -8 2 -17 11 -18 16 -22 17 -47 17 -9 0 -12 7 -9 20 3
11 0 20 -6 20 -6 0 -8 -8 -4 -17 6 -16 5 -17 -13 -3 -10 8 -5 -1 11 -19 17
-19 25 -31 19 -28 -7 4 -17 0 -24 -9 -11 -12 -15 -12 -21 -2 -12 18 -11 40 1
33 6 -4 8 -11 5 -16 -4 -5 -2 -9 4 -9 19 0 19 16 0 28 -17 11 -21 9 -29 -13
-5 -14 -12 -25 -16 -25 -3 0 -3 7 0 16 3 8 2 12 -3 9 -6 -3 -9 -14 -8 -25 1
-18 3 -18 18 -4 16 14 17 14 15 -2 -3 -16 -19 -24 -58 -27 -12 -1 -14 -5 -7
-13 7 -8 6 -15 -2 -20 -8 -4 -9 -3 -5 4 4 7 2 12 -5 12 -6 0 -9 -8 -7 -18 3
-12 0 -19 -9 -19 -8 0 -12 8 -9 21 3 12 0 9 -6 -6 -7 -16 -16 -28 -21 -28 -4
0 -6 -4 -3 -8 3 -5 -1 -9 -9 -9 -13 0 -12 4 2 19 9 10 13 21 10 25 -4 3 -7 1
-7 -6 0 -7 -5 -9 -12 -5 -7 4 -10 4 -6 -1 4 -4 3 -14 -3 -22 -9 -9 -8 -17 0
-27 9 -11 9 -16 0 -22 -7 -4 -9 -3 -5 4 3 6 2 13 -4 17 -5 3 -10 0 -10 -7 0
-8 -3 -9 -8 -3 -10 15 -32 17 -32 3 0 -6 -3 -8 -7 -5 -11 12 -32 -14 -26 -31
6 -15 4 -15 -10 -4 -15 12 -16 11 -12 -17 2 -18 0 -29 -6 -25 -5 3 -7 9 -5 13
3 3 -3 7 -13 7 -10 0 -18 -6 -18 -13 0 -7 4 -10 8 -7 4 2 10 0 13 -5 4 -5 -1
-8 -10 -7 -8 1 -19 8 -23 15 -6 9 -10 8 -16 -6 -12 -27 -14 -44 -5 -38 4 3 14
-3 21 -13 13 -15 12 -16 -3 -3 -12 9 -18 10 -18 2 0 -6 -5 -11 -11 -11 -5 0
-8 4 -4 9 3 6 -3 9 -14 8 -16 -1 -18 -4 -8 -16 10 -12 9 -13 -2 -6 -11 6 -13
4 -7 -10 5 -15 4 -16 -9 -5 -8 7 -13 16 -10 19 2 4 -2 8 -10 8 -11 0 -12 -4
-4 -14 6 -7 8 -13 4 -13 -4 0 -1 -8 6 -17 13 -16 12 -17 -3 -4 -10 7 -16 17
-13 21 3 4 -1 10 -8 13 -7 3 -13 -5 -13 -19 -1 -15 2 -22 10 -17 6 3 6 1 -2
-8 -9 -10 -12 -345 -12 -1606 l0 -1593 185 2 c101 1 182 5 179 10 -3 5 -9 6
-14 3 -11 -7 -7 22 5 32 4 4 6 3 2 -2 -3 -6 3 -17 15 -24 18 -11 19 -10 13 11
-5 17 -4 19 4 9 7 -11 13 -12 24 -3 11 9 14 9 14 -3 0 -8 -5 -11 -11 -8 -6 3
-5 0 2 -8 11 -12 14 -12 22 1 9 13 10 13 10 0 0 -9 9 -16 19 -16 11 0 17 5 14
11 -3 5 0 4 8 -2 7 -7 20 -13 29 -13 13 0 13 1 0 10 -8 5 -10 10 -5 10 6 0 17
-4 24 -9 9 -6 22 -6 34 1 14 7 17 7 13 -1 -5 -8 1596 -11 5819 -11 l5826 0 -1
275 -1 276 -22 -6 c-18 -5 -19 -4 -7 5 13 9 12 13 -5 28 -11 10 -21 24 -23 32
-2 8 -15 28 -30 43 -23 24 -24 27 -7 22 18 -6 18 -5 2 5 -9 6 -15 15 -12 21 4
5 -1 9 -10 9 -9 0 -13 5 -10 10 3 6 1 10 -5 10 -6 0 -8 5 -4 12 5 8 2 9 -9 5
-10 -3 -17 -2 -17 4 0 6 -4 8 -8 5 -5 -3 -9 1 -9 9 0 11 4 12 13 4 8 -7 14 -6
20 2 4 7 3 9 -3 6 -6 -4 -16 0 -23 8 -7 8 -17 12 -24 8 -6 -4 -4 2 4 12 9 11
10 16 3 11 -8 -4 -13 -2 -13 4 0 6 -4 9 -9 6 -5 -3 -12 1 -15 10 -3 8 -2 12 4
9 6 -3 7 1 4 9 -3 9 -10 13 -15 10 -5 -3 -9 3 -9 13 0 15 -2 16 -11 3 -9 -12
-10 -10 -6 8 5 20 3 22 -11 10 -12 -10 -14 -10 -8 0 4 6 3 12 -2 12 -6 0 -8
10 -5 22 4 19 3 20 -6 8 -9 -12 -11 -11 -11 9 0 16 -4 21 -15 17 -19 -7 -19
-1 0 17 13 13 13 16 -1 21 -8 3 -12 2 -9 -4 3 -6 1 -10 -6 -10 -6 0 -9 8 -6
20 4 16 2 18 -12 11 -13 -7 -17 -5 -17 9 0 11 6 16 16 14 8 -3 5 1 -7 7 -13 7
-23 18 -23 26 0 9 -5 11 -12 7 -9 -5 -9 -2 1 9 12 15 11 17 -7 17 -15 0 -20 5
-17 20 2 11 -1 20 -7 20 -5 0 -8 6 -5 13 3 8 -1 14 -9 14 -7 0 -11 -4 -8 -8 2
-4 0 -10 -5 -13 -4 -3 -8 2 -8 12 0 34 -3 43 -13 37 -5 -3 -10 1 -10 10 0 10
-5 13 -12 9 -8 -5 -9 -2 -5 9 3 10 2 17 -2 17 -5 0 -12 -6 -14 -12 -5 -12 -11
17 -8 35 1 5 -3 6 -9 2 -5 -3 -10 -2 -10 2 0 5 -10 13 -22 18 -16 7 -22 17
-20 32 2 14 -4 23 -18 28 -11 3 -18 11 -15 16 4 5 -9 23 -27 40 -18 18 -28 29
-21 25 6 -3 15 -1 19 5 4 7 3 9 -3 6 -11 -7 -45 28 -36 37 4 3 1 6 -5 6 -7 0
-12 7 -12 16 0 8 -5 12 -10 9 -6 -3 -10 -1 -10 4 0 12 -29 48 -72 93 -16 15
-28 31 -28 37 0 5 -7 12 -16 15 -9 3 -14 13 -11 21 4 10 1 12 -10 8 -11 -4
-14 -2 -9 5 4 7 2 12 -3 12 -6 0 -11 7 -11 16 0 8 -4 12 -10 9 -5 -3 -10 0
-10 8 0 8 -7 18 -16 21 -8 3 -12 10 -9 16 3 5 1 10 -4 10 -6 0 -11 7 -11 16 0
10 -6 14 -14 11 -10 -4 -12 1 -9 16 4 18 3 19 -6 7 -9 -13 -11 -13 -11 3 0 9
-5 17 -11 17 -5 0 -7 5 -4 10 3 6 1 10 -5 10 -6 0 -9 4 -6 9 3 5 -3 11 -14 14
-11 3 -20 12 -20 21 0 9 -4 16 -10 16 -5 0 -10 7 -10 15 0 8 -4 15 -8 15 -5 0
-14 12 -21 27 -7 15 -21 33 -32 41 -11 7 -17 18 -14 23 4 5 -1 9 -9 9 -9 0
-16 9 -16 21 0 11 -4 17 -10 14 -9 -5 -11 -1 -10 20 1 10 -25 33 -32 29 -4 -3
-5 4 -3 16 2 11 -1 19 -8 17 -6 -1 -13 7 -15 18 -2 11 -14 28 -25 37 -14 13
-16 18 -6 18 8 1 4 6 -9 13 -17 10 -20 15 -10 25 9 9 8 12 -6 12 -9 0 -15 4
-11 9 3 5 -1 16 -10 24 -8 8 -16 21 -17 28 -2 8 -11 20 -21 28 -10 7 -16 18
-14 25 3 6 -2 17 -9 24 -8 7 -14 9 -14 5 -1 -4 -8 4 -16 20 -8 15 -19 27 -24
27 -6 0 -9 3 -8 8 2 13 -14 42 -24 42 -17 0 -78 52 -78 67 0 8 -4 12 -9 8 -5
-3 -15 11 -22 30 -7 19 -19 35 -26 35 -7 0 -13 5 -13 11 0 5 6 7 13 4 6 -4 0
4 -15 17 -16 13 -28 27 -28 31 0 4 -9 17 -20 29 -11 12 -20 28 -20 35 0 7 -5
13 -11 13 -5 0 -8 4 -5 8 3 5 -6 16 -20 26 -13 11 -24 23 -24 28 0 5 -9 18
-20 30 -11 12 -20 27 -20 32 0 6 -14 20 -30 31 -16 11 -30 26 -30 33 0 6 -6
12 -14 12 -8 0 -18 9 -21 20 -4 11 -11 18 -16 15 -5 -4 -9 1 -9 9 0 9 -5 16
-11 16 -5 0 -7 5 -4 10 3 6 2 10 -3 10 -12 0 -34 59 -26 71 3 5 0 8 -8 7 -7
-2 -13 4 -13 12 0 8 -7 23 -15 32 -31 34 -39 46 -34 51 2 2 -2 10 -11 17 -8 7
-15 21 -15 31 0 11 -3 19 -8 19 -4 0 -13 14 -21 32 -8 17 -20 39 -28 47 -7 9
-13 20 -12 24 0 5 -10 17 -22 28 -12 10 -19 19 -15 19 7 0 -4 15 -41 54 -12
13 -19 27 -16 30 3 3 -2 8 -11 12 -9 3 -14 10 -11 14 3 4 -2 11 -11 14 -9 3
-12 11 -8 18 4 7 4 10 0 6 -12 -10 -55 32 -49 48 3 8 1 14 -3 14 -14 0 -64 46
-64 59 0 6 -4 10 -9 9 -5 -2 -29 18 -55 44 -25 26 -46 45 -46 41 0 -3 -12 6
-26 21 -15 14 -31 26 -36 26 -5 0 -6 5 -2 12 4 6 3 8 -3 5 -20 -12 -183 143
-183 174 0 5 -4 7 -10 4 -5 -3 -10 -1 -10 5 0 6 -18 29 -40 50 -23 22 -47 51
-55 66 -12 23 -12 30 2 51 14 21 14 28 4 45 -10 16 -10 19 1 13 7 -3 5 0 -4 8
-10 8 -15 17 -11 20 3 4 1 7 -5 7 -7 0 -12 7 -12 15 0 8 -4 15 -10 15 -5 0
-10 5 -10 11 0 16 -39 48 -67 55 -13 4 -23 10 -23 14 0 4 -10 11 -22 15 -31
10 -37 12 -43 15 -3 1 -8 3 -12 4 -5 1 -14 5 -22 10 -10 7 -12 5 -6 -5 5 -8
-5 -3 -21 11 -16 14 -30 28 -32 33 -2 4 -8 4 -14 1 -5 -3 -12 3 -15 14 -3 12
-11 18 -18 16 -7 -3 -16 0 -21 7 -5 8 -3 10 6 4 8 -5 11 -3 8 5 -2 6 -19 18
-37 26 -31 13 -33 13 -20 -3 7 -10 -7 2 -32 27 -24 25 -43 51 -41 58 2 6 -1
12 -6 12 -6 0 -19 17 -29 38 -9 20 -20 39 -24 42 -4 3 -13 18 -18 33 -6 16
-15 25 -21 22 -5 -3 -7 0 -4 9 3 8 -4 23 -15 33 -12 9 -21 23 -21 30 0 6 -8
17 -17 22 -10 6 -15 11 -10 11 4 0 0 11 -9 25 -9 14 -21 22 -27 18 -5 -3 -7
-1 -3 5 3 6 -1 17 -9 25 -8 9 -15 24 -15 34 0 15 -2 16 -10 3 -8 -13 -10 -13
-10 2 0 9 -9 20 -20 23 -11 4 -18 11 -15 16 4 5 -1 12 -10 15 -10 4 -14 13
-10 22 3 9 3 14 0 10 -8 -7 -65 47 -65 62 0 6 -4 8 -10 5 -5 -3 -10 -2 -10 3
0 6 -13 24 -30 42 -16 18 -30 38 -30 46 0 8 -4 14 -10 14 -5 0 -10 7 -10 15 0
8 -4 15 -10 15 -5 0 -10 7 -10 16 0 8 -5 12 -11 9 -6 -4 -9 -1 -7 8 2 8 -8 25
-21 36 -13 12 -21 21 -17 21 7 0 -5 17 -39 52 -12 13 -14 18 -5 14 8 -4 4 2
-9 13 -13 12 -20 21 -16 21 5 0 -2 9 -14 19 -12 10 -24 30 -26 43 -3 12 -12
28 -20 34 -13 9 -13 13 -3 17 10 4 10 6 1 6 -7 1 -13 13 -13 27 0 17 -4 23
-12 18 -7 -5 -9 -2 -5 9 3 9 -1 18 -11 22 -14 5 -14 7 -2 15 10 7 11 10 3 10
-7 0 -13 9 -13 21 0 11 -4 18 -9 15 -5 -3 -8 5 -8 18 0 29 -24 86 -37 86 -4 0
-3 7 4 15 9 11 9 15 1 15 -7 0 -9 5 -6 10 3 6 1 10 -5 10 -6 0 -8 5 -5 10 3 6
-2 10 -12 11 -10 0 -13 3 -6 6 9 3 10 10 3 22 -5 10 -7 21 -3 24 3 4 1 13 -5
20 -6 7 -13 28 -14 45 -1 19 -7 31 -14 28 -7 -3 -9 5 -6 20 2 13 0 24 -4 24
-5 0 -10 17 -11 37 -1 20 -5 39 -10 42 -4 3 -9 20 -11 36 -4 52 -5 55 -12 55
-4 0 -7 6 -8 13 -2 31 -11 52 -19 50 -6 -1 -9 11 -7 27 2 17 -1 30 -7 30 -7 0
-9 9 -6 21 3 13 0 22 -10 26 -12 5 -12 7 -1 14 7 5 8 9 3 9 -6 0 -11 15 -12
33 -2 61 -3 68 -12 62 -5 -3 -13 0 -17 6 -4 7 -3 9 4 5 15 -9 21 15 10 38 -7
12 -7 16 0 12 6 -4 8 2 5 14 -3 11 -10 20 -17 20 -6 0 -4 5 4 10 12 7 12 10 1
10 -7 0 -11 6 -7 15 3 8 1 15 -5 15 -6 0 -9 7 -6 15 4 8 2 17 -3 20 -5 3 -6
13 -3 22 4 10 2 14 -4 10 -5 -3 -9 4 -8 16 1 12 -4 36 -11 53 -8 18 -9 36 -4
44 5 9 5 19 -2 27 -8 10 -7 13 3 13 9 1 8 4 -4 11 -14 8 -15 14 -7 24 8 10 8
15 0 20 -7 4 -8 11 -1 18 15 19 15 21 2 45 -9 17 -9 22 1 23 7 0 4 4 -7 9 -11
5 -15 9 -8 9 6 1 11 10 10 20 0 11 -4 18 -8 15 -4 -2 -10 3 -13 11 -3 9 1 18
9 21 12 5 10 10 -8 26 -12 11 -17 17 -10 14 7 -4 11 1 10 13 0 11 -5 17 -9 15
-4 -3 -8 -1 -8 5 0 5 5 13 10 16 8 5 7 11 -1 21 -9 11 -8 14 2 14 9 0 10 3 4
8 -5 4 -12 18 -13 32 -2 14 -8 26 -12 28 -5 2 -6 10 -3 18 3 8 1 14 -5 14 -6
0 -12 -6 -15 -12 -2 -7 -4 0 -4 17 0 16 -6 31 -12 33 -6 2 -11 10 -11 18 0 8
-4 14 -10 14 -5 0 -10 7 -10 16 0 8 -4 12 -10 9 -5 -3 -10 -1 -10 5 0 6 -6 8
-12 4 -10 -5 -10 -4 -1 6 9 10 7 17 -7 33 -11 11 -17 25 -13 30 4 6 1 7 -6 3
-8 -5 -14 0 -18 13 -3 11 -10 18 -16 14 -5 -3 -7 -1 -4 5 9 13 -2 44 -13 37
-4 -3 -13 9 -20 25 -7 17 -16 30 -21 30 -5 0 -9 7 -9 16 0 8 -5 12 -10 9 -6
-4 -10 -3 -9 2 3 20 -2 46 -8 40 -9 -9 -34 13 -27 24 3 5 -2 9 -10 9 -9 0 -16
5 -16 10 0 6 -6 10 -14 10 -8 0 -17 7 -20 16 -3 8 -10 12 -16 9 -5 -3 -10 1
-10 10 0 9 -4 14 -8 11 -5 -3 -15 4 -22 15 -8 10 -19 19 -25 19 -6 0 -16 9
-23 20 -7 11 -19 20 -27 20 -8 0 -15 7 -15 16 0 8 -4 13 -9 10 -5 -4 -11 -2
-13 3 -1 5 -12 11 -23 13 -11 1 -23 8 -27 13 -4 6 -8 -1 -8 -15 0 -20 -2 -22
-10 -10 -9 14 -15 6 -10 -15 1 -5 -2 -7 -6 -3 -3 4 -18 -1 -32 -12 -29 -23
-42 -19 -34 12 4 16 2 19 -8 13 -10 -6 -12 -4 -7 8 4 10 2 17 -5 17 -6 0 -5 6
3 17 10 11 10 14 2 9 -8 -4 -13 -2 -13 4 0 6 -6 18 -14 25 -10 11 -16 11 -26
2 -9 -8 -11 -8 -7 -1 10 17 -29 24 -63 11 -17 -6 -30 -18 -30 -27 0 -9 -6 -22
-12 -29 -8 -8 -8 -11 -2 -8 7 4 14 -3 16 -18 5 -22 3 -23 -10 -13 -13 11 -14
10 -4 -9 7 -12 12 -33 12 -47 0 -14 3 -26 8 -26 4 -1 21 -12 37 -26 17 -15 24
-23 18 -20 -9 5 -11 2 -6 -10 4 -11 8 -13 11 -6 2 7 9 9 15 5 6 -4 8 0 5 9 -5
11 0 15 15 13 12 -1 30 -3 40 -4 10 0 16 -5 13 -10 -4 -5 1 -8 11 -7 9 2 25
-6 35 -16 20 -20 24 -33 6 -22 -6 4 0 -8 15 -28 15 -19 24 -38 19 -43 -4 -5
-1 -5 6 -1 7 4 12 1 12 -9 0 -8 8 -19 18 -22 25 -10 50 -45 46 -66 -2 -12 2
-17 14 -15 12 2 17 -4 16 -20 -1 -14 3 -21 10 -19 16 6 18 -35 3 -45 -9 -6 -8
-8 3 -8 13 0 13 -2 0 -11 -13 -9 -12 -10 3 -5 9 3 25 9 35 12 13 4 14 4 3 -4
-10 -8 -11 -14 -1 -32 7 -12 8 -25 4 -29 -16 -11 -16 -34 0 -28 9 4 17 3 20
-1 3 -4 -5 -9 -16 -9 -29 -3 -33 -10 -17 -30 11 -15 11 -16 -1 -6 -8 7 -19 9
-29 4 -9 -5 -24 -7 -34 -6 -9 2 -14 -1 -11 -7 8 -12 -55 20 -73 37 -6 7 -9 17
-5 21 4 5 1 4 -7 -3 -11 -9 -17 -9 -28 3 -8 8 -19 12 -24 9 -5 -4 -9 -1 -9 4
0 6 -7 11 -16 11 -8 0 -12 5 -9 10 3 6 -3 10 -14 10 -12 0 -21 5 -21 10 0 6
-7 10 -16 10 -9 0 -12 5 -8 12 4 6 3 8 -3 5 -6 -4 -23 5 -39 18 -16 14 -35 25
-41 25 -7 0 -13 5 -13 12 0 6 -3 9 -6 5 -3 -3 -11 -1 -18 4 -6 5 -22 18 -35
29 -13 11 -19 20 -12 20 8 0 9 5 1 19 -7 14 -7 22 0 26 8 5 8 11 1 19 -6 7 -7
17 -3 22 4 4 0 3 -9 -4 -19 -14 -30 -6 -22 16 4 8 2 13 -3 9 -6 -3 -10 7 -9
23 0 16 4 26 10 22 5 -3 4 1 -3 10 -8 10 -10 26 -6 42 4 16 2 26 -5 27 -6 1
-17 2 -23 3 -7 1 -19 -5 -26 -14 -8 -8 -11 -10 -8 -4 4 7 -6 14 -25 16 -23 4
-29 1 -24 -10 4 -12 3 -13 -10 -2 -8 7 -15 8 -15 3 0 -5 -7 -10 -15 -10 -8 0
-15 6 -15 12 0 6 -7 12 -15 12 -8 0 -15 -5 -15 -10 0 -6 -3 -7 -6 -4 -4 4 -1
13 6 22 11 13 10 14 -6 9 -10 -4 -24 -11 -31 -16 -8 -6 -11 -4 -9 8 2 10 8 20
14 22 7 2 12 8 12 13 0 6 -10 4 -22 -2 l-22 -12 18 29 19 29 -23 -20 -23 -20
8 23 c6 22 5 23 -15 12 -13 -7 -20 -7 -16 -2 3 6 3 12 -1 15 -5 2 -3 2 4 1 9
-2 10 4 2 22 -5 14 -6 31 -2 37 3 7 3 9 -2 5 -4 -4 -14 -1 -21 7 -17 17 -18
29 -2 19 7 -4 8 -3 4 5 -6 9 -11 9 -22 0 -11 -9 -10 -14 8 -28 17 -15 19 -19
7 -26 -8 -5 -11 -5 -7 0 5 5 0 14 -10 21 -14 9 -18 23 -16 51 2 25 0 33 -5 24
-5 -8 -7 -21 -4 -30 3 -12 2 -12 -7 2 -6 9 -15 15 -21 12 -5 -3 -6 1 -3 9 4
10 1 16 -7 16 -9 0 -10 3 -4 8 12 9 18 32 8 31 -22 -4 -35 3 -30 15 7 19 -12
36 -32 28 -14 -5 -14 -4 -1 13 14 17 13 18 -8 13 -12 -4 -20 -2 -17 2 3 5 -1
11 -7 14 -7 3 -2 4 12 1 14 -3 19 -2 12 1 -6 3 -10 10 -7 14 3 5 -4 7 -16 5
-18 -4 -19 -2 -7 12 9 12 9 15 1 9 -8 -4 -13 -1 -13 8 0 9 -4 17 -10 17 -5 1
-16 2 -22 3 -7 1 -12 9 -10 19 2 9 -3 17 -10 17 -9 0 -9 3 2 10 8 5 10 10 5
10 -6 0 -17 -6 -24 -12 -10 -9 -12 -9 -7 -1 3 6 2 14 -4 18 -6 4 -8 11 -5 16
3 5 0 6 -8 3 -16 -6 -90 73 -81 87 3 5 -2 9 -10 9 -8 0 -18 4 -21 10 -4 6 1 7
12 4 14 -5 15 -4 4 4 -8 6 -21 8 -30 4 -9 -3 -13 -2 -9 3 4 4 -2 16 -13 26
-12 10 -19 25 -16 33 9 22 -16 39 -33 23 -8 -6 -7 -3 2 8 16 20 16 21 -2 22
-11 1 -29 8 -40 16 -19 13 -20 16 -5 31 19 19 6 22 -14 4 -11 -10 -13 -10 -7
0 4 7 1 12 -8 12 -19 0 -20 11 -3 30 6 8 1 6 -12 -5 l-24 -20 13 24 c7 15 8
21 1 17 -6 -4 -11 -3 -11 3 0 5 3 11 8 14 4 2 1 2 -7 0 -9 -2 -11 2 -7 14 6
14 4 15 -4 7 -9 -9 -9 -17 -1 -33 10 -17 9 -20 -4 -15 -8 3 -12 11 -8 17 4 6
0 8 -10 4 -16 -6 -16 -4 -2 17 16 24 11 38 -10 30 -7 -3 -15 2 -18 10 -4 10
-1 13 7 10 8 -3 17 0 21 6 3 6 3 10 -2 9 -26 -4 -34 2 -28 24 4 14 3 17 -3 9
-6 -9 -12 -6 -22 13 -12 22 -12 30 0 48 12 19 11 21 -2 10 -8 -7 -19 -9 -23
-5 -5 4 -5 2 -2 -4 3 -6 0 -11 -8 -11 -8 0 -13 5 -12 11 1 6 -5 10 -13 8 -9
-1 -6 6 9 18 23 20 23 20 1 20 -17 0 -20 4 -16 23 3 12 3 16 0 10 -7 -16 -34
-17 -34 -2 0 5 6 7 13 3 8 -5 8 -3 -2 9 -13 16 -36 14 -26 -3 3 -5 1 -11 -4
-14 -13 -9 -8 19 8 38 11 13 11 17 -3 22 -9 3 -14 9 -12 13 2 3 -2 15 -10 26
-8 10 -14 14 -14 9 0 -6 5 -15 12 -22 7 -7 8 -12 2 -12 -5 0 -15 10 -23 21
-10 16 -10 23 -1 29 8 5 7 9 -4 13 -9 4 -15 12 -14 19 2 6 -6 13 -17 15 -15 2
-16 1 -5 -5 18 -8 25 -32 9 -32 -5 0 -8 -4 -4 -9 3 -5 1 -12 -4 -16 -6 -3 -8
4 -6 16 3 13 0 28 -6 35 -5 6 -9 16 -8 20 4 22 -2 34 -18 34 -16 0 -16 -1 0
-12 16 -12 15 -13 -9 -15 -15 0 -23 2 -18 5 5 4 9 14 9 22 0 8 6 18 14 21 11
4 9 7 -7 11 -12 4 -25 1 -29 -4 -3 -7 -1 -8 5 -4 8 5 10 2 6 -9 -7 -18 -7 -18
-23 12 -8 16 -8 24 1 29 7 4 8 3 4 -4 -5 -8 -2 -10 8 -6 13 5 12 9 -6 24 -12
10 -28 15 -35 13 -7 -3 -13 0 -13 7 0 7 -8 10 -20 7 -11 -3 -18 -1 -15 3 3 5
1 12 -5 15 -6 4 -8 15 -5 26 4 11 2 19 -5 19 -6 0 -8 5 -5 10 8 13 -1 13 -25
-2 -16 -10 -25 -8 -57 19 -21 17 -38 39 -37 49 0 14 -8 20 -28 21 -15 1 -28
-3 -28 -9 0 -6 -3 -8 -6 -5 -4 4 -1 14 7 23 13 16 12 16 -9 5 -18 -10 -26 -10
-38 0 -8 7 -13 18 -10 26 3 7 1 13 -4 13 -5 0 -10 -10 -12 -22 -2 -12 -10 -23
-18 -25 -11 -3 -11 -2 -3 4 7 5 10 17 8 28 -2 11 -4 27 -5 35 -1 10 -4 9 -9
-5 -5 -11 -4 -25 1 -32 7 -9 7 -13 0 -13 -5 0 -13 7 -16 16 -3 8 -11 12 -16 9
-6 -4 -9 -2 -8 3 2 6 -1 11 -6 11 -6 1 -11 -6 -12 -15 -1 -9 -5 -19 -8 -22 -9
-8 -2 30 7 46 5 6 4 12 -2 12 -5 0 -13 -5 -16 -10 -5 -8 -11 -7 -20 0 -8 7
-20 8 -27 4 -7 -5 -5 5 6 20 15 24 16 28 3 23 -25 -9 -43 19 -26 41 13 15 12
16 -3 3 -19 -14 -18 -58 1 -53 6 1 11 -2 11 -8 0 -13 -6 -13 -31 1 -11 5 -16
15 -13 21 4 6 3 8 -4 4 -5 -3 -13 0 -16 6 -2 7 -3 2 -1 -12 2 -14 4 -28 4 -32
1 -4 7 -6 14 -4 6 1 9 1 4 -1 -4 -3 -4 -9 -1 -15 4 -5 -5 -2 -20 7 -25 16 -38
34 -15 19 8 -4 8 -1 1 12 -5 11 -7 24 -5 31 2 6 -1 14 -6 18 -7 4 -8 -1 -4
-12 6 -16 5 -16 -11 -4 -9 8 -15 20 -12 27 3 8 0 11 -10 7 -12 -4 -12 -8 -2
-22 7 -9 16 -18 20 -21 4 -3 3 -12 -2 -20 -7 -11 -10 -11 -10 -2 0 7 -9 11
-23 8 -18 -3 -23 1 -22 18 0 11 3 26 7 32 4 6 1 11 -7 11 -8 0 -12 -4 -9 -9 3
-4 1 -8 -5 -8 -6 0 -8 -7 -4 -15 3 -9 2 -15 -3 -13 -5 2 -10 0 -11 -4 -6 -17
-2 -20 12 -8 13 11 14 10 9 -4 -5 -14 -2 -16 20 -12 15 3 24 1 21 -4 -3 -4 3
-7 12 -6 19 3 50 -31 39 -41 -3 -4 -6 -1 -6 6 0 7 -5 9 -12 5 -7 -4 -8 -3 -4
4 4 7 2 12 -3 12 -6 0 -11 -5 -11 -11 0 -6 -9 -1 -20 12 -10 13 -19 19 -20 14
0 -6 6 -17 13 -25 6 -8 3 -7 -9 3 -11 9 -24 14 -29 10 -4 -5 -5 -2 0 6 5 9 3
12 -6 9 -8 -3 -13 -11 -11 -17 1 -7 -2 -10 -8 -6 -8 5 -8 11 0 20 7 8 7 15 1
19 -5 4 -13 -3 -16 -15 -4 -11 -9 -18 -12 -16 -2 3 3 19 12 36 8 17 12 31 8
31 -5 0 -1 4 7 10 8 5 11 12 6 17 -6 7 -29 -21 -31 -37 -1 -12 -24 -44 -25
-34 0 5 5 15 12 22 9 9 9 12 -2 12 -9 0 -8 6 6 23 10 12 12 17 5 10 -11 -9
-19 -8 -37 4 -22 14 -24 14 -30 -1 -3 -9 -10 -13 -15 -10 -5 3 -6 10 -3 16 4
6 1 14 -7 18 -10 7 -10 11 0 24 9 11 10 16 2 16 -6 0 -11 -6 -11 -12 0 -9 -3
-9 -9 1 -7 10 -4 19 7 27 13 10 19 9 29 -5 11 -13 11 -11 2 12 -7 15 -16 27
-21 27 -5 0 -7 -4 -3 -9z m-40 -50 c6 8 13 2 24 -17 8 -16 16 -31 16 -34 0 -3
5 -14 12 -24 10 -19 11 -19 17 2 6 18 10 20 25 10 19 -12 22 -31 6 -45 -4 -4
-5 -2 0 6 6 11 2 13 -19 9 -18 -4 -29 -1 -33 8 -3 8 -9 14 -14 14 -4 0 -6 -7
-3 -15 4 -8 1 -15 -5 -15 -6 0 -10 5 -8 11 1 6 -4 14 -12 17 -8 2 -11 0 -7 -6
3 -6 1 -14 -5 -18 -7 -4 -9 -3 -6 3 4 6 0 16 -9 23 -13 12 -14 10 -10 -13 3
-15 1 -27 -4 -27 -4 0 -8 19 -8 43 0 64 -1 69 -14 61 -9 -5 -8 -2 1 9 13 16
15 16 31 2 14 -12 20 -13 25 -4z m-60 -59 c-3 -3 -11 0 -18 7 -9 10 -8 11 6 5
10 -3 15 -9 12 -12z m-181 -9 c16 -9 17 -11 2 -16 -10 -4 -14 -3 -11 2 3 5 1
12 -5 16 -9 6 -15 -9 -10 -30 1 -5 -8 -1 -19 9 -11 10 -19 22 -16 26 6 9 36 6
59 -7z m-74 -67 c0 -2 -7 -7 -16 -10 -8 -3 -12 -2 -9 4 6 10 25 14 25 6z m30
0 c0 -3 -4 -8 -10 -11 -5 -3 -10 -1 -10 4 0 6 5 11 10 11 6 0 10 -2 10 -4z
m-100 -26 c0 -5 -5 -10 -11 -10 -5 0 -7 5 -4 10 3 6 8 10 11 10 2 0 4 -4 4
-10z m-405 -12 c3 -3 -1 -8 -9 -11 -8 -3 -17 0 -19 8 -5 13 16 15 28 3z m-485
-23 c0 4 6 2 14 -4 9 -8 15 -8 18 -2 2 7 8 7 18 1 13 -8 13 -10 -2 -10 -11 0
-15 -7 -12 -22 4 -22 4 -22 -6 1 -8 19 -13 21 -25 11 -8 -7 -12 -17 -8 -23 3
-6 1 -7 -5 -3 -6 4 -9 13 -5 21 3 9 -1 23 -8 33 -13 15 -12 16 4 3 9 -7 17
-10 17 -6z m330 -6 c0 -14 -17 -10 -23 5 -4 10 -1 13 9 9 7 -3 14 -9 14 -14z
m303 2 c-5 -13 -3 -14 8 -3 16 15 29 16 29 1 0 -5 -4 -8 -9 -4 -5 3 -12 1 -16
-4 -4 -7 -15 -6 -31 1 -14 7 -20 14 -14 18 20 12 38 7 33 -9z m94 4 c0 -8 -3
-13 -5 -10 -3 3 -10 0 -17 -5 -8 -7 -12 -5 -12 5 0 8 4 12 9 9 4 -3 8 0 8 5 0
6 4 11 8 11 5 0 9 -7 9 -15z m828 -5 c10 -11 16 -20 13 -20 -3 0 -13 9 -23 20
-10 11 -16 20 -13 20 3 0 13 -9 23 -20z m-1061 2 c3 -5 -1 -9 -9 -9 -8 0 -12
4 -9 9 3 4 7 8 9 8 2 0 6 -4 9 -8z m-189 -21 c3 -5 2 -12 -3 -15 -5 -3 -9 1
-9 9 0 17 3 19 12 6z m105 -5 c-7 -7 -13 -7 -20 0 -6 6 -3 10 10 10 13 0 16
-4 10 -10z m195 4 c3 -5 1 -10 -4 -10 -6 0 -11 5 -11 10 0 6 2 10 4 10 3 0 8
-4 11 -10z m-535 -7 c0 -5 -5 -15 -10 -23 -7 -12 -9 -10 -7 8 1 19 17 33 17
15z m435 -2 c3 -5 2 -12 -3 -15 -5 -3 -9 1 -9 9 0 17 3 19 12 6z m41 -11 c0
-12 -4 -16 -9 -11 -5 5 -6 14 -3 20 10 15 12 14 12 -9z m1284 6 c0 -3 -4 -8
-10 -11 -5 -3 -10 -1 -10 4 0 6 5 11 10 11 6 0 10 -2 10 -4z m85 -16 c3 -6 -1
-7 -9 -4 -18 7 -21 14 -7 14 6 0 13 -4 16 -10z m-1968 -7 c-4 -3 -1 -13 6 -21
8 -11 8 -14 0 -9 -6 4 -14 1 -17 -5 -2 -7 -3 -2 -1 12 4 32 4 30 12 30 3 0 3
-3 0 -7z m75 -15 c-7 -7 -16 -6 -29 1 -16 11 -15 11 6 5 17 -4 21 -3 16 6 -6
9 -4 11 4 5 9 -5 9 -11 3 -17z m205 -1 c0 -7 -13 -12 -29 -12 -15 -1 -28 3
-28 8 0 5 6 7 13 4 8 -3 20 -1 28 4 8 5 14 9 15 9 0 0 1 -6 1 -13z m-164 -12
c4 -8 3 -16 -1 -19 -4 -3 -9 4 -9 15 -2 23 3 25 10 4z m-273 -40 c11 -13 10
-14 -4 -9 -9 3 -16 10 -16 15 0 13 6 11 20 -6z m-20 -22 c0 -2 -8 -3 -17 -1
-12 2 -18 -3 -17 -13 1 -11 -5 -15 -17 -12 -17 5 -17 6 3 23 19 15 48 17 48 3z
m55 7 c3 -5 1 -10 -4 -10 -6 0 -11 5 -11 10 0 6 2 10 4 10 3 0 8 -4 11 -10z
m2230 0 c3 -5 -1 -10 -9 -10 -9 0 -16 5 -16 10 0 6 4 10 9 10 6 0 13 -4 16
-10z m-2353 -47 c-6 -2 -10 -9 -6 -14 3 -5 0 -9 -5 -9 -12 0 -14 13 -4 23 3 4
11 7 17 6 6 0 5 -3 -2 -6z m-32 -12 c0 -5 -7 -12 -16 -15 -14 -5 -15 -4 -4 9
14 17 20 19 20 6z m2435 -21 c3 -5 1 -10 -4 -10 -6 0 -11 5 -11 10 0 6 2 10 4
10 3 0 8 -4 11 -10z m40 0 c3 -5 1 -10 -4 -10 -6 0 -11 5 -11 10 0 6 2 10 4
10 3 0 8 -4 11 -10z m-2460 -10 c3 -6 -1 -7 -9 -4 -18 7 -21 14 -7 14 6 0 13
-4 16 -10z m-97 -22 c-7 -13 -11 -27 -9 -33 1 -5 -1 -7 -5 -3 -4 4 -13 0 -21
-10 -12 -15 -12 -15 -7 0 4 11 1 16 -10 14 -21 -3 -33 -16 -15 -16 11 0 11 -2
-1 -10 -8 -5 -19 -10 -25 -10 -5 0 -3 5 5 10 8 5 11 10 6 10 -5 0 -1 9 9 20
13 14 21 17 31 9 15 -12 29 5 18 23 -4 6 -3 8 4 4 6 -3 13 -2 17 4 12 20 15 9
3 -12z m76 -6 c3 -5 -1 -9 -9 -9 -8 0 -12 4 -9 9 3 4 7 8 9 8 2 0 6 -4 9 -8z
m2436 -56 c0 -2 -8 -10 -17 -17 -16 -13 -17 -12 -4 4 13 16 21 21 21 13z m110
-26 c0 -5 -2 -10 -4 -10 -3 0 -8 5 -11 10 -3 6 -1 10 4 10 6 0 11 -4 11 -10z
m-23 -27 c0 -9 -4 -10 -14 -2 -7 6 -13 12 -13 14 0 1 6 2 13 2 8 0 14 -6 14
-14z m11 -29 c-12 -12 -17 -13 -23 -3 -5 8 -4 10 4 5 6 -4 14 0 17 9 4 9 9 13
12 10 3 -3 -1 -13 -10 -21z m-2753 -15 c-4 -5 -12 -9 -18 -8 -9 0 -8 2 1 6 6
2 9 10 6 15 -4 7 -2 8 5 4 6 -4 9 -12 6 -17z m-75 1 c0 -5 -5 -10 -11 -10 -5
0 -7 5 -4 10 3 6 8 10 11 10 2 0 4 -4 4 -10z m2877 -22 c2 -18 0 -20 -7 -8
-12 18 -13 30 -2 30 4 0 9 -10 9 -22z m-2905 -44 c-3 -15 -2 -16 12 -5 23 19
26 10 4 -11 -10 -10 -18 -14 -18 -10 0 5 -7 17 -16 28 -8 10 -13 13 -9 6 3 -7
9 -25 11 -40 5 -26 4 -26 -10 -7 -8 11 -12 23 -10 27 2 4 -1 10 -7 14 -8 5 -8
9 1 14 21 13 45 4 42 -16z m2978 16 c-8 -5 -19 -10 -25 -10 -5 0 -3 5 5 10 8
5 20 10 25 10 6 0 3 -5 -5 -10z m-10 -99 c0 -6 -4 -12 -8 -15 -5 -3 -9 1 -9 9
0 8 4 15 9 15 4 0 8 -4 8 -9z m20 -21 c0 -5 -5 -10 -11 -10 -5 0 -7 5 -4 10 3
6 8 10 11 10 2 0 4 -4 4 -10z m39 -13 c-2 -1 -13 -9 -24 -17 -19 -14 -19 -14
-6 3 7 9 18 17 24 17 6 0 8 -1 6 -3z m65 -36 c3 -5 -2 -15 -12 -22 -15 -13
-16 -12 -4 3 10 13 10 17 0 21 -9 4 -9 6 -1 6 6 1 14 -3 17 -8z m-3247 -46 c0
-8 -4 -12 -9 -9 -5 3 -6 10 -3 15 9 13 12 11 12 -6z m3218 -14 c3 -5 2 -12 -3
-15 -5 -3 -9 1 -9 9 0 17 3 19 12 6z m-3270 -24 c-11 -6 -31 -13 -45 -14 l-25
-3 25 13 c14 7 34 14 45 14 l20 2 -20 -12z m3329 -36 c-3 -3 -15 6 -27 18
l-22 24 27 -19 c14 -10 24 -21 22 -23z m-3426 -53 c-2 -7 4 -11 12 -10 8 2 11
0 7 -5 -5 -4 -14 -8 -20 -8 -7 -1 -11 -7 -9 -15 3 -11 0 -11 -13 0 -14 12 -14
15 1 31 20 22 25 24 22 7z m-73 -118 c3 -6 -1 -7 -9 -4 -18 7 -21 14 -7 14 6
0 13 -4 16 -10z m3705 6 c0 -3 -4 -8 -10 -11 -5 -3 -10 -1 -10 4 0 6 5 11 10
11 6 0 10 -2 10 -4z m-3926 -252 c3 -8 2 -12 -4 -9 -6 3 -10 10 -10 16 0 14 7
11 14 -7z m-131 -118 c4 -11 1 -13 -11 -9 -15 6 -16 5 -2 -13 14 -18 14 -18
-3 -5 -13 10 -15 17 -6 27 14 17 16 17 22 0z m4397 -30 c0 -3 -4 -8 -10 -11
-5 -3 -10 -1 -10 4 0 6 5 11 10 11 6 0 10 -2 10 -4z m-4465 -87 c-4 -5 2 -9
12 -10 11 0 13 -3 5 -6 -16 -6 -44 16 -36 28 3 5 10 7 15 3 5 -3 7 -10 4 -15z
m5176 -166 c13 -16 12 -17 -3 -4 -10 7 -18 15 -18 17 0 8 8 3 21 -13z m18 -64
c-9 -6 -18 -3 -25 6 -6 8 -13 13 -16 10 -2 -3 -5 1 -5 8 0 11 6 11 30 -1 22
-11 26 -17 16 -23z m-314 -9 c3 -5 1 -10 -4 -10 -6 0 -11 5 -11 10 0 6 2 10 4
10 3 0 8 -4 11 -10z m-4987 -108 c-7 -10 -14 -19 -15 -21 -3 -4 2 28 6 47 1 2
6 0 11 -3 8 -5 7 -12 -2 -23z m2 -46 c0 -2 -8 -10 -17 -17 -16 -13 -17 -12 -4
4 13 16 21 21 21 13z m-100 -46 c0 -5 -4 -10 -10 -10 -5 0 -10 5 -10 10 0 6 5
10 10 10 6 0 10 -4 10 -10z m5601 -113 c-10 -9 -11 -8 -5 6 3 10 9 15 12 12 3
-3 0 -11 -7 -18z m-5591 -61 c0 -3 -4 -8 -10 -11 -5 -3 -10 -1 -10 4 0 6 5 11
10 11 6 0 10 -2 10 -4z m-70 -100 c0 -2 -7 -9 -15 -16 -13 -11 -14 -10 -9 4 5
14 24 23 24 12z m5637 -12 c0 -7 -6 -10 -14 -7 -7 3 -13 8 -13 12 0 4 6 8 13
8 8 0 14 -6 14 -13z m-5687 -74 c0 -5 -4 -10 -10 -10 -5 0 -10 5 -10 10 0 6 5
10 10 10 6 0 10 -4 10 -10z m-21 -60 c11 -24 11 -24 -3 -6 -9 11 -16 24 -16
30 0 12 5 7 19 -24z m-7 -137 c-10 -4 -9 -9 5 -20 17 -13 16 -13 -5 -3 -22 11
-22 31 1 29 8 0 8 -2 -1 -6z m-132 -268 c0 -2 -6 -5 -13 -8 -8 -3 -14 1 -14 8
0 7 6 11 14 8 7 -3 13 -6 13 -8z m-236 -207 c-3 -5 -10 -6 -15 -3 -8 6 -13 -8
-10 -27 0 -5 -3 -8 -9 -8 -12 0 -13 6 -1 29 6 10 17 18 25 18 8 0 13 -4 10 -9z
m-87 -60 c-3 -8 -6 -5 -6 6 -1 11 2 17 5 13 3 -3 4 -12 1 -19z m5541 -23 c0
-14 -4 -26 -9 -26 -23 -4 -29 -3 -28 5 0 5 -5 12 -11 16 -8 5 -7 9 5 13 9 4
13 3 10 -3 -3 -6 -1 -10 5 -10 6 0 13 7 16 15 9 21 12 19 12 -10z m-5518 -5
c0 -5 -4 -10 -10 -10 -5 0 -10 5 -10 10 0 6 5 10 10 10 6 0 10 -4 10 -10z
m-30 -40 c0 -5 -2 -10 -4 -10 -3 0 -8 5 -11 10 -3 6 -1 10 4 10 6 0 11 -4 11
-10z m5390 4 c0 -8 -19 -13 -24 -6 -3 5 1 9 9 9 8 0 15 -2 15 -3z m110 -3 c0
-11 43 -9 51 3 4 5 12 6 17 2 13 -8 5 -36 -10 -36 -5 0 -7 4 -4 8 3 5 -1 9 -9
9 -18 0 -19 -4 -2 -22 10 -11 16 -10 34 7 l22 20 -6 -22 c-7 -27 15 -44 37
-27 8 6 12 7 7 2 -4 -4 1 -18 10 -29 14 -16 14 -18 3 -11 -14 9 -14 8 0 -5 29
-30 55 -63 43 -56 -7 4 -13 2 -13 -3 0 -6 6 -11 13 -11 7 0 19 -16 27 -35 8
-19 17 -35 22 -35 4 0 8 -6 8 -14 0 -8 7 -17 16 -20 8 -3 13 -10 9 -15 -3 -5
0 -13 6 -17 8 -4 9 -3 5 4 -11 18 0 14 15 -5 10 -11 10 -14 2 -9 -7 4 -13 3
-13 -3 0 -5 5 -13 10 -16 8 -5 7 -11 -1 -21 -11 -14 -1 -20 26 -14 5 1 1 -8
-10 -20 -19 -21 -19 -22 -2 -35 13 -9 15 -15 7 -20 -9 -6 -9 -10 1 -16 9 -6
10 -9 2 -9 -12 0 -12 -17 0 -37 5 -8 3 -13 -5 -14 -10 0 -10 -2 0 -6 6 -2 9
-10 5 -16 -4 -7 2 -5 13 3 10 8 16 11 12 6 -4 -5 -2 -18 4 -30 9 -18 9 -19 -3
-11 -8 6 -7 3 3 -7 10 -9 18 -23 18 -32 0 -9 4 -16 9 -16 5 0 11 -25 13 -55 2
-40 -1 -56 -11 -60 -10 -4 -11 -9 -3 -17 13 -13 4 -40 -11 -31 -6 4 -8 0 -4
-10 4 -12 2 -14 -10 -10 -9 4 -14 2 -11 -3 6 -9 -17 -36 -24 -28 -3 2 -5 -2
-6 -8 -4 -48 -7 -58 -20 -53 -7 2 -10 0 -7 -5 3 -6 -2 -11 -12 -11 -17 -1 -17
-2 0 -6 21 -6 23 -23 1 -23 -11 0 -14 -5 -10 -17 4 -10 4 -14 0 -10 -4 4 -14
1 -22 -6 -13 -10 -15 -9 -10 4 5 12 1 15 -18 13 -13 -1 -22 1 -19 6 3 5 -1 14
-8 22 -7 7 -15 18 -16 23 -2 6 -8 9 -14 7 -6 -2 -6 3 2 11 9 12 9 16 0 19 -11
4 -18 23 -21 55 -1 9 -5 10 -15 2 -10 -9 -12 -5 -9 19 2 24 0 29 -12 24 -11
-4 -14 -1 -9 11 6 16 -9 23 -37 18 -5 -1 -4 5 3 13 8 9 10 23 6 33 -5 10 -7
22 -6 26 1 5 -3 6 -9 2 -8 -5 -8 -11 -1 -19 8 -9 7 -13 -4 -13 -8 0 -12 4 -9
8 2 4 0 10 -5 14 -6 3 -7 13 -4 22 5 12 3 14 -7 8 -10 -6 -12 -4 -6 10 6 16 4
16 -11 4 -9 -8 -14 -9 -11 -4 3 6 -1 24 -9 40 -10 22 -13 24 -9 7 4 -23 4 -23
-20 3 -13 14 -29 23 -35 19 -8 -4 -8 0 0 15 10 18 9 20 -6 14 -13 -5 -15 -3
-10 12 6 14 5 16 -7 6 -11 -9 -17 -8 -29 3 -8 8 -18 12 -21 8 -4 -3 -4 1 -1
10 4 9 1 19 -6 24 -7 4 -10 3 -5 -4 3 -6 1 -14 -5 -18 -8 -4 -9 -3 -5 4 4 7 2
12 -4 12 -6 0 -8 5 -5 10 3 6 -2 10 -12 10 -15 0 -16 2 -3 10 10 6 16 6 18 0
2 -6 8 -10 13 -10 6 0 6 7 0 19 -6 10 -7 21 -4 25 3 3 2 6 -4 6 -5 0 -10 7
-10 16 0 15 1 15 12 0 12 -16 31 -23 21 -8 -2 4 4 8 14 9 12 1 17 -3 13 -12
-2 -8 -8 -14 -11 -13 -28 3 -32 -3 -21 -24 7 -13 11 -24 10 -26 -1 -1 2 -9 6
-17 6 -10 13 -11 23 -5 13 8 12 10 -3 10 -10 0 -16 4 -12 9 3 5 1 12 -5 16 -5
3 -10 14 -10 23 0 14 1 14 13 -1 9 -13 16 -14 27 -6 12 9 12 10 -4 5 -12 -4
-17 -2 -13 6 21 52 21 51 -1 46 -12 -4 -22 -2 -22 4 0 5 -4 6 -10 3 -5 -3 -10
-1 -10 5 0 7 6 10 14 7 8 -3 22 1 33 9 13 10 14 14 3 12 -8 -2 -18 -7 -22 -13
-5 -6 -8 -5 -8 3 0 7 -5 10 -12 6 -7 -4 -8 -3 -4 4 4 7 2 12 -5 12 -7 0 -9 3
-6 6 4 4 13 1 22 -6 11 -9 15 -9 15 -1 0 7 4 10 9 6 5 -3 13 0 17 7 4 7 4 10
-1 6 -4 -4 -14 0 -22 10 -10 13 -12 13 -10 2 2 -8 2 -12 0 -7 -3 4 -10 4 -16
0 -8 -5 -8 -2 0 9 7 8 9 18 5 23 -4 4 3 3 15 -4 15 -7 24 -8 28 -1 4 6 3 10
-2 9 -17 -3 -52 14 -57 27 -4 11 -1 12 12 6 9 -5 23 -7 31 -4 8 2 11 0 8 -5
-3 -5 0 -10 8 -10 11 0 12 4 4 13 -6 7 -7 19 -3 25 4 7 3 9 -4 5 -6 -3 -13 -2
-17 4 -3 5 -1 10 6 10 7 0 10 3 6 6 -3 3 -11 3 -17 -1 -8 -5 -8 -10 0 -20 8
-9 8 -15 0 -20 -5 -3 -10 1 -10 10 0 9 -4 14 -8 11 -5 -3 -9 1 -9 9 0 8 5 11
10 8 6 -4 8 0 5 9 -5 11 1 14 22 13 25 -1 28 1 19 16 -5 10 -15 21 -22 25 -9
6 -9 4 1 -8 8 -9 9 -19 4 -22 -6 -3 -15 1 -21 8 -8 9 -8 16 -2 20 5 4 8 15 6
26 -2 11 1 23 7 26 7 4 8 2 4 -4 -4 -7 -1 -12 9 -12 9 0 13 5 10 10 -3 6 -1
10 5 10 6 0 9 4 5 9 -5 9 32 27 48 23 4 -1 7 2 7 6 0 4 10 8 23 9 21 2 21 1
-3 -12 -14 -7 -27 -12 -30 -10 -3 2 -6 -9 -6 -23 -2 -26 -1 -26 9 -4 9 19 25
27 49 23 4 0 5 8 3 19 -4 22 10 28 18 8 3 -7 4 -3 4 9 -1 12 -4 20 -8 17 -4
-2 -12 3 -19 11 -9 10 -9 15 -1 15 6 0 11 -4 11 -9z m-15 -21 c3 -5 1 -10 -4
-10 -6 0 -11 5 -11 10 0 6 2 10 4 10 3 0 8 -4 11 -10z m-5523 -18 c9 -9 9 -12
0 -12 -7 0 -12 5 -12 10 0 6 -5 10 -11 10 -5 0 -8 -4 -5 -9 3 -5 -1 -11 -9
-14 -8 -4 -12 -15 -10 -27 2 -11 0 -18 -6 -15 -5 4 -7 11 -4 16 4 5 1 9 -6 9
-7 0 -5 6 6 13 14 11 15 16 5 22 -9 5 -11 4 -6 -3 4 -7 3 -12 -2 -12 -6 0 -12
6 -15 14 -5 11 2 14 28 13 19 -2 40 -8 47 -15z m5428 -12 c0 -5 -5 -10 -11
-10 -5 0 -7 5 -4 10 3 6 8 10 11 10 2 0 4 -4 4 -10z m-5567 -95 c4 3 4 2 1 -2
-3 -4 -13 -8 -22 -8 -10 0 -16 -7 -14 -16 1 -9 -6 -23 -15 -30 -16 -13 -17
-12 -4 4 18 22 9 33 -10 11 -19 -24 -21 -47 -2 -40 13 5 14 4 4 -8 -14 -16
-51 -17 -51 -1 0 5 -4 4 -9 -4 -5 -8 -11 -9 -15 -3 -10 17 12 24 36 11 20 -11
22 -11 10 3 -9 11 -10 18 -2 23 6 3 7 11 4 17 -5 7 -2 8 6 3 10 -6 12 -4 7 8
-4 12 -2 14 11 10 9 -3 14 -2 9 2 -4 5 1 17 10 27 15 17 19 18 29 4 6 -9 14
-14 17 -11z m-120 -134 c4 -1 7 -6 7 -12 0 -5 -4 -7 -10 -4 -5 3 -10 0 -10 -7
0 -8 -5 -6 -11 5 -6 9 -15 15 -21 11 -6 -4 -5 -9 3 -15 12 -7 12 -10 0 -21 -9
-8 -11 -9 -7 -1 3 6 2 14 -3 17 -5 3 -12 -6 -16 -21 -6 -25 -8 -26 -17 -10
-11 21 -3 51 12 42 6 -3 13 1 16 9 4 9 14 14 27 12 12 -3 25 -5 30 -5z m-174
-99 c8 -16 6 -18 -12 -16 -12 1 -24 3 -26 3 -4 1 20 31 25 31 2 0 8 -8 13 -18z
m-154 -174 c5 4 5 1 1 -5 -10 -18 -23 -16 -30 3 -5 13 -4 14 7 6 8 -7 18 -8
22 -4z m-465 -902 c0 -2 -7 -7 -16 -10 -8 -3 -12 -2 -9 4 6 10 25 14 25 6z
m7304 -424 c3 -5 -1 -9 -9 -9 -8 0 -12 4 -9 9 3 4 7 8 9 8 2 0 6 -4 9 -8z m50
-120 c3 -5 -1 -9 -9 -9 -8 0 -12 4 -9 9 3 4 7 8 9 8 2 0 6 -4 9 -8z m5 -35 c8
-10 7 -14 -2 -14 -8 0 -14 6 -14 14 0 7 1 13 2 13 2 0 8 -6 14 -13z m166 -7
c-3 -5 -12 -10 -18 -10 -7 0 -6 4 3 10 19 12 23 12 15 0z m-68 -32 c2 -17 0
-19 -7 -8 -5 8 -6 18 -4 22 8 12 10 10 11 -14z m-57 8 c0 -2 -8 -10 -17 -17
-16 -13 -17 -12 -4 4 13 16 21 21 21 13z m66 -63 c-4 -10 -2 -13 8 -10 20 8
29 -22 14 -41 -11 -13 -10 -15 4 -9 12 4 15 2 11 -9 -3 -10 0 -12 10 -8 18 7
32 -12 16 -22 -8 -4 -9 -3 -5 4 4 7 3 12 -3 12 -21 0 -20 -19 1 -34 18 -13 20
-18 9 -28 -11 -11 -12 -10 -6 1 6 10 4 12 -5 6 -9 -6 -11 -4 -5 5 6 9 4 11 -5
5 -9 -6 -11 -4 -5 5 5 9 4 11 -4 6 -9 -6 -9 -11 0 -22 9 -11 8 -15 -5 -20 -9
-3 -16 -10 -16 -16 0 -5 4 -7 8 -4 4 2 14 1 20 -3 10 -6 10 -11 -2 -20 -12
-10 -17 -7 -31 19 -9 17 -26 35 -38 40 -20 8 -20 9 -3 9 11 1 16 4 13 8 -4 3
-2 12 4 19 9 11 3 23 -22 51 -18 21 -36 37 -41 36 -4 -2 -5 4 -1 13 3 9 9 12
12 7 3 -4 15 -9 26 -11 20 -3 20 -2 1 13 -11 8 -15 15 -10 15 6 0 15 -5 22
-12 6 -6 15 -9 19 -5 3 4 -2 14 -13 23 -18 14 -18 15 4 4 15 -7 21 -17 18 -27z
m27 22 c-3 -9 -8 -14 -10 -11 -3 3 -2 9 2 15 9 16 15 13 8 -4z m42 5 c3 -5 1
-10 -4 -10 -6 0 -11 5 -11 10 0 6 2 10 4 10 3 0 8 -4 11 -10z m41 1 c-3 -4 3
-16 13 -25 18 -17 20 -17 30 2 6 11 8 22 6 26 -3 3 -2 4 2 1 4 -3 8 -23 9 -43
1 -20 5 -45 9 -54 8 -21 -14 -25 -33 -6 -7 7 -12 8 -12 3 0 -19 16 -30 42 -31
21 -1 27 3 25 17 -2 10 -6 22 -10 25 -13 13 -7 29 16 43 22 14 22 14 4 -7 -21
-24 -15 -44 11 -36 10 4 13 2 7 -3 -5 -4 -12 -17 -13 -27 -3 -16 -1 -18 10 -9
8 7 23 10 33 8 11 -2 22 -4 26 -4 8 -1 6 -51 -3 -51 -4 0 -8 4 -8 8 0 5 -7 9
-15 9 -8 0 -12 -4 -9 -9 3 -4 0 -8 -5 -8 -6 0 -11 -8 -11 -17 1 -17 1 -17 11
0 5 9 15 17 21 17 7 0 6 -5 -2 -15 -10 -12 -9 -16 4 -21 20 -8 25 -4 31 26 2
12 7 25 11 29 4 3 4 -2 1 -11 -7 -19 8 -35 16 -18 3 6 4 5 3 -2 -2 -7 -8 -12
-14 -11 -6 2 -9 -10 -7 -27 4 -29 -16 -57 -34 -46 -5 4 -12 2 -15 -2 -5 -8 18
-9 45 -3 3 0 11 13 17 27 7 14 8 23 2 19 -5 -3 -10 -2 -10 3 0 11 30 25 38 17
3 -3 1 -5 -5 -5 -5 0 -10 -6 -11 -12 -4 -46 -8 -59 -24 -64 -10 -3 -16 -10
-13 -15 4 -5 1 -9 -6 -9 -7 0 -9 -3 -5 -7 4 -5 14 0 21 11 8 10 19 15 25 11 6
-4 21 1 33 12 22 18 22 18 4 -3 -9 -11 -14 -24 -10 -28 4 -4 0 -4 -9 -1 -9 4
-28 -1 -41 -10 -24 -15 -26 -15 -37 2 -11 16 -11 17 -6 0 5 -14 1 -16 -19 -11
-15 4 -25 2 -25 -5 0 -6 8 -8 18 -5 9 3 5 -2 -10 -10 -19 -11 -25 -22 -22 -34
5 -14 4 -15 -5 -2 -6 9 -7 18 -1 24 6 6 10 21 10 34 0 13 4 21 8 18 4 -2 8 4
9 14 1 10 -5 21 -14 24 -13 5 -14 4 -3 -9 10 -12 9 -16 -4 -21 -9 -3 -13 -11
-9 -18 4 -6 0 -5 -10 2 -14 12 -16 11 -14 -7 1 -15 6 -20 17 -16 12 4 12 2 -2
-8 -17 -13 -11 -36 19 -65 14 -14 15 -13 16 21 1 28 17 39 37 24 13 -10 13
-10 2 5 -14 18 -17 17 50 18 16 1 19 3 9 9 -9 6 -10 11 -2 15 6 4 11 2 11 -4
0 -6 5 -8 13 -4 9 6 9 5 0 -7 -10 -12 -9 -20 3 -37 9 -13 12 -22 7 -21 -19 3
-27 -2 -15 -10 10 -6 6 -11 -17 -19 -20 -7 -33 -7 -37 -1 -3 6 -12 3 -20 -8
-18 -24 -18 -39 1 -23 16 13 35 6 34 -13 0 -9 -2 -9 -6 1 -7 17 -23 15 -23 -4
0 -13 -3 -14 -13 -5 -8 6 -17 8 -21 4 -4 -4 -4 1 -1 12 5 15 4 16 -3 6 -7 -9
-12 -10 -16 -2 -10 15 -29 14 -23 -1 2 -7 10 -12 17 -10 7 2 9 -5 5 -18 -4
-12 -2 -20 5 -20 6 0 9 4 6 9 -11 17 22 20 36 4 11 -14 11 -16 -4 -10 -12 4
-15 2 -11 -9 4 -10 9 -12 18 -4 9 8 13 4 13 -14 0 -18 -5 -23 -17 -19 -12 5
-13 3 -4 -7 13 -14 36 -4 30 13 -2 7 0 20 5 31 7 12 7 16 0 12 -6 -3 -13 -2
-17 4 -15 24 26 7 49 -21 23 -27 31 -29 27 -6 -1 4 7 4 16 -1 10 -5 23 -7 30
-5 6 2 19 -7 28 -21 10 -14 22 -23 31 -19 13 5 19 -8 15 -31 -1 -5 6 -6 15 -2
13 5 15 2 11 -14 -4 -18 -3 -19 9 -9 12 10 13 9 8 -5 -4 -11 -1 -16 10 -16 9
0 16 -7 16 -16 0 -13 -3 -14 -13 -5 -10 8 -14 7 -14 -4 0 -8 4 -12 9 -9 4 3 8
1 8 -5 0 -5 -4 -12 -9 -16 -6 -3 -9 -14 -8 -25 1 -10 4 -17 8 -14 4 2 10 -2
12 -8 4 -9 6 -10 6 -1 1 6 -3 15 -9 18 -15 9 -12 27 3 19 6 -4 9 -4 5 1 -9 10
10 35 26 35 6 0 2 -6 -8 -12 -19 -11 -19 -11 -1 -24 10 -8 14 -14 9 -14 -6 0
-11 -7 -11 -15 0 -19 2 -19 21 1 9 8 16 11 16 6 0 -5 -7 -15 -15 -22 -8 -7
-15 -18 -15 -24 0 -8 2 -8 8 0 8 13 44 15 36 2 -3 -5 -10 -5 -16 -2 -7 4 -8 2
-4 -4 4 -7 1 -12 -6 -12 -8 0 -6 -5 5 -11 9 -6 14 -15 11 -21 -4 -7 -2 -8 5
-4 9 6 9 11 1 21 -8 9 -7 14 4 18 11 4 13 1 9 -10 -4 -10 -2 -14 4 -10 5 3 10
0 10 -8 0 -8 -3 -13 -6 -11 -3 2 -12 -2 -19 -10 -8 -9 -9 -14 -2 -14 6 0 8 -5
5 -10 -4 -6 -10 -8 -15 -5 -5 3 -12 1 -15 -5 -4 -6 -3 -10 2 -9 22 4 25 -2 7
-17 -19 -15 -18 -15 2 -5 11 5 27 18 35 27 8 10 9 15 3 11 -6 -3 -11 0 -11 8
0 8 3 13 5 10 3 -3 12 1 21 7 13 10 14 10 3 -2 -10 -12 -5 -18 30 -38 24 -13
34 -20 23 -17 -11 4 -27 9 -35 12 -8 2 -5 -4 8 -15 23 -21 30 -38 10 -26 -7 5
-9 2 -5 -8 3 -9 0 -21 -6 -28 -9 -10 -8 -12 6 -7 9 4 17 2 17 -3 0 -12 -23
-13 -34 -2 -7 7 -11 8 -37 11 -5 0 -8 5 -5 10 7 11 -21 9 -29 -2 -3 -4 -2 -5
2 -2 8 6 33 -14 33 -27 0 -5 -5 -6 -10 -3 -6 3 -13 -1 -16 -9 -3 -8 -14 -18
-24 -21 -11 -3 -22 -15 -25 -26 -4 -10 -11 -16 -17 -13 -7 4 -8 2 -4 -5 4 -6
12 -9 17 -6 5 4 9 1 9 -4 0 -14 -17 -14 -25 -1 -4 6 -11 8 -16 5 -5 -4 -12 1
-15 9 -3 9 -10 14 -14 11 -5 -3 -7 3 -6 12 2 9 8 19 14 21 8 2 10 -3 5 -14 -4
-12 -3 -15 5 -10 8 5 10 1 5 -11 -5 -12 4 -7 24 12 17 17 29 32 26 35 -3 3
-11 -4 -19 -14 -7 -11 -17 -16 -21 -13 -4 4 -1 13 5 19 7 7 12 17 12 23 0 5
-4 4 -9 -4 -10 -16 -49 -23 -56 -10 -6 8 24 21 34 14 4 -2 8 2 8 10 0 10 -5
11 -18 4 -23 -12 -32 -12 -24 1 3 6 1 10 -4 10 -6 0 -11 -4 -11 -10 0 -15 -22
-7 -42 15 -20 23 -23 14 -7 -16 6 -12 17 -18 25 -15 7 3 13 2 13 -2 -1 -4 -1
-14 0 -22 1 -12 3 -13 10 -1 6 9 11 10 15 2 4 -6 2 -11 -4 -11 -6 0 -9 -4 -6
-8 3 -5 -1 -9 -9 -9 -8 0 -13 2 -11 4 7 7 -28 40 -37 36 -4 -3 -7 -1 -6 4 3
19 -2 33 -12 33 -5 0 -8 -4 -5 -8 2 -4 -4 -8 -15 -8 -16 0 -15 3 9 22 15 12
30 20 34 17 5 -2 8 3 8 12 0 9 5 13 10 10 8 -5 8 -11 0 -20 -19 -22 3 -24 40
-3 31 17 24 17 -20 0 -13 -5 -13 -3 -1 11 8 10 11 20 7 24 -3 3 -6 0 -6 -8 0
-12 -2 -12 -9 0 -7 11 -14 10 -39 -8 -19 -13 -33 -18 -37 -11 -4 6 -1 9 6 8 6
-2 13 2 16 9 3 7 -4 10 -19 6 -22 -4 -22 -4 2 9 17 9 25 22 25 41 1 16 -3 31
-7 33 -4 3 -8 0 -8 -7 0 -7 -6 -5 -13 6 -10 12 -16 14 -21 7 -4 -7 -2 -12 3
-12 6 0 11 -7 11 -15 0 -8 -5 -15 -11 -15 -5 0 -8 4 -4 9 3 5 1 12 -5 16 -5 3
-10 1 -10 -6 0 -7 -3 -9 -7 -6 -3 4 2 16 12 27 20 22 9 27 -15 7 -22 -17 -19
-59 4 -67 17 -6 18 -7 3 -13 -9 -3 -17 -2 -17 4 0 6 -4 7 -10 4 -5 -3 -20 0
-32 7 -13 7 -30 11 -38 10 -13 -3 -13 -2 0 8 13 9 12 13 -8 30 -13 10 -23 23
-22 27 0 4 -4 8 -9 8 -5 0 -13 4 -18 9 -4 5 -3 6 4 3 6 -4 13 -2 15 5 6 16
-21 68 -34 68 -6 0 -8 3 -5 6 4 4 13 2 20 -4 11 -9 14 -6 14 17 0 20 -4 28
-14 24 -7 -3 -10 -10 -6 -16 3 -6 1 -7 -5 -3 -6 4 -8 14 -5 23 5 12 3 14 -8 8
-12 -8 -12 -6 0 9 13 15 12 17 -13 12 -22 -4 -25 -2 -17 8 6 7 9 16 6 20 -3 3
1 2 7 -4 17 -14 28 -12 28 6 0 9 -5 12 -12 8 -6 -4 -8 -3 -4 4 3 6 15 9 26 7
22 -4 25 7 9 36 -5 11 -15 16 -21 13 -7 -5 -8 -2 -3 7 17 30 38 48 49 42 6 -3
3 3 -7 13 -18 18 -19 18 -32 1 -8 -12 -15 -14 -20 -7 -3 5 -11 8 -16 5 -5 -4
-9 -1 -9 5 0 6 -4 8 -10 5 -6 -3 -7 1 -4 9 4 10 -1 18 -11 22 -13 6 -14 9 -3
16 9 7 7 8 -10 5 -12 -3 -20 -1 -16 4 3 5 12 9 20 9 8 0 12 5 9 10 -4 7 -12 7
-25 0 -13 -7 -21 -7 -26 2 -4 6 -3 8 2 5 6 -3 15 3 22 14 14 21 3 26 -17 7
-11 -10 -13 -10 -7 0 4 7 2 12 -6 12 -10 0 -10 2 1 9 8 5 20 7 28 4 7 -3 13 0
13 6 0 6 -5 11 -11 11 -8 0 -8 4 1 15 17 20 20 66 4 72 -7 2 -10 11 -7 19 3 7
-2 17 -11 20 -9 3 -13 10 -10 16 3 5 12 1 20 -9 14 -17 14 -17 12 1 -2 10 3
21 10 23 13 5 11 -35 -4 -58 -5 -8 -3 -9 6 -4 9 6 11 4 5 -5 -6 -9 -4 -11 5
-5 9 6 11 4 6 -6 -4 -8 -1 -6 7 4 18 22 22 22 24 -2 1 -15 -4 -18 -23 -16 -23
2 -31 -5 -17 -18 3 -4 13 -1 21 6 13 9 14 9 8 0 -4 -8 -2 -13 4 -13 6 0 8 -5
4 -11 -4 -8 -9 -7 -16 2 -8 11 -9 11 -5 -1 6 -22 32 -18 33 5 2 37 4 39 18 20
7 -10 21 -19 29 -21 14 -2 15 1 5 19 -16 29 -18 47 -7 47 5 0 9 4 9 9 0 6 -9
8 -20 6 -11 -2 -20 0 -20 6 0 5 5 9 10 9 6 0 10 7 10 15 0 10 7 14 23 12 12
-2 16 -2 10 0 -21 7 -15 22 7 18 13 -2 24 4 31 17 9 16 8 19 -3 15 -7 -2 -12
-9 -11 -14 1 -6 -11 -9 -27 -8 -19 2 -28 -1 -24 -9 3 -6 -2 -2 -11 9 -16 19
-16 19 -11 -9 3 -17 0 -34 -10 -43 -8 -8 -12 -19 -9 -24 4 -5 -1 -6 -9 -3 -14
5 -14 8 0 22 14 14 14 17 -8 29 l-23 14 25 -7 c23 -6 24 -6 10 11 -9 11 -10
16 -2 11 14 -8 15 -5 6 18 -5 13 -9 14 -21 5 -9 -8 -8 -2 4 19 14 24 20 28 26
16 4 -7 13 -14 19 -14 7 0 6 5 -2 15 -7 8 -9 23 -4 37 l7 23 -24 -20 c-13 -11
-21 -16 -17 -11 4 4 -2 17 -12 29 -17 17 -19 37 -4 37 3 0 3 -4 0 -9z m99 -21
c-3 -5 -12 -10 -18 -10 -7 0 -6 4 3 10 19 12 23 12 15 0z m-115 -9 c0 -5 -7
-12 -16 -15 -14 -5 -15 -4 -4 9 14 17 20 19 20 6z m23 -35 c4 -10 1 -13 -9 -9
-7 3 -14 9 -14 14 0 14 17 10 23 -5z m121 6 c3 -5 -1 -9 -9 -9 -8 0 -12 4 -9
9 3 4 7 8 9 8 2 0 6 -4 9 -8z m-154 -16 c0 -2 -7 -7 -16 -10 -8 -3 -12 -2 -9
4 6 10 25 14 25 6z m-110 -46 c0 -5 -4 -10 -10 -10 -5 0 -10 5 -10 10 0 6 5
10 10 10 6 0 10 -4 10 -10z m117 -22 c2 -17 0 -19 -7 -8 -5 8 -6 18 -4 22 8
12 10 10 11 -14z m-144 -13 c-3 -9 -8 -14 -10 -11 -3 3 -2 9 2 15 9 16 15 13
8 -4z m342 -35 c-3 -5 -11 -10 -16 -10 -6 0 -7 5 -4 10 3 6 11 10 16 10 6 0 7
-4 4 -10z m-300 -11 c3 -5 -1 -6 -10 -3 -11 5 -14 2 -9 -12 7 -20 6 -19 -13 6
-10 13 -8 16 7 17 11 1 22 -2 25 -8z m126 -2 c-6 -8 -8 -17 -4 -20 3 -4 1 -7
-5 -7 -6 0 -10 9 -9 20 1 11 8 20 15 20 11 0 12 -3 3 -13z m54 -34 c-1 -10 3
-25 9 -33 6 -8 -1 -5 -16 5 -24 18 -25 21 -11 33 21 15 22 15 18 -5z m-180 -3
c-3 -5 -1 -10 5 -10 6 0 8 -5 4 -11 -4 -8 -9 -7 -15 2 -7 12 -3 29 7 29 3 0 2
-4 -1 -10z m75 -14 c0 -2 -7 -6 -15 -10 -8 -3 -15 -1 -15 4 0 6 7 10 15 10 8
0 15 -2 15 -4z m292 -3 c-6 -2 -10 -9 -7 -13 3 -5 1 -11 -4 -14 -7 -5 -8 11
-2 32 1 1 7 2 14 1 9 0 9 -2 -1 -6z m-328 -29 c3 -8 2 -12 -4 -9 -6 3 -10 10
-10 16 0 14 7 11 14 -7z m27 -11 c-12 -20 -14 -14 -5 12 4 9 9 14 11 11 3 -2
0 -13 -6 -23z m315 -49 c-4 -9 -1 -24 6 -33 11 -15 10 -15 -5 0 -16 13 -15 49
0 49 3 0 2 -7 -1 -16z m-36 -105 c0 -5 4 -8 9 -5 5 4 8 -2 7 -11 -3 -19 -36
-32 -36 -14 0 6 8 8 18 4 15 -6 15 -4 -2 15 -11 12 -14 22 -8 22 7 0 12 -5 12
-11z m80 -9 c0 -5 -5 -10 -11 -10 -5 0 -7 5 -4 10 3 6 8 10 11 10 2 0 4 -4 4
-10z m-248 -43 c-22 -24 -57 -32 -67 -16 -3 5 1 6 10 3 9 -4 15 -3 14 2 -4 21
2 26 16 14 12 -10 16 -9 21 4 3 9 11 16 17 16 6 0 1 -10 -11 -23z m228 -13 c0
-2 -8 -1 -17 4 -10 5 -25 7 -33 5 -13 -4 -13 -3 -1 6 14 9 51 -2 51 -15z
m-7014 -137 c-1 -23 -6 -33 -18 -33 -9 0 -15 4 -12 7 2 4 0 10 -6 14 -9 5 -14
-7 -11 -27 0 -4 -7 -4 -16 -1 -11 4 -14 3 -9 -5 4 -7 2 -12 -4 -12 -7 0 -9 8
-5 21 7 20 6 20 -19 4 -25 -17 -26 -17 -20 1 6 16 5 17 -7 7 -7 -7 -17 -13
-23 -13 -5 0 -1 6 9 14 11 8 23 12 27 10 16 -10 8 9 -9 23 -16 13 -16 13 5 3
17 -8 22 -8 22 2 1 7 6 4 13 -8 7 -12 18 -19 25 -17 10 4 8 9 -5 20 -17 13
-16 13 4 4 15 -8 24 -8 28 -1 4 6 11 8 16 5 5 -4 9 -1 9 4 0 6 2 11 4 11 2 0
3 -15 2 -33z m46 -1 c7 4 8 2 4 -5 -4 -6 -11 -9 -16 -6 -4 3 -10 -1 -13 -7 -2
-7 -4 0 -4 16 0 23 1 26 9 12 5 -9 14 -13 20 -10z m-216 -34 c-2 -9 2 -20 8
-24 8 -6 8 -8 -1 -8 -6 0 -15 5 -18 10 -3 6 -11 10 -17 10 -7 0 -6 -6 2 -15 7
-9 8 -15 2 -15 -20 0 -21 30 -1 40 11 6 16 16 13 22 -4 6 -3 8 4 5 5 -4 9 -15
8 -25z m-168 -15 c8 -10 6 -13 -7 -13 -11 0 -17 6 -14 13 3 7 6 13 8 13 1 0 7
-6 13 -13z m83 -10 c-10 -9 -11 -8 -5 6 3 10 9 15 12 12 3 -3 0 -11 -7 -18z
m7009 13 c0 -5 -5 -10 -11 -10 -5 0 -7 5 -4 10 3 6 8 10 11 10 2 0 4 -4 4 -10z
m-6860 -25 c0 -2 -7 -1 -17 2 -10 4 -14 2 -9 -5 3 -6 3 -13 -2 -16 -4 -2 -8 6
-8 19 0 20 3 22 18 14 10 -5 18 -12 18 -14z m-397 7 c4 10 7 10 15 -1 7 -9 12
-10 16 -2 4 6 13 11 19 11 22 -1 -28 -24 -53 -25 -14 -1 -31 -4 -36 -8 -6 -3
-11 0 -11 7 0 8 7 12 15 8 11 -4 13 -2 7 9 -7 12 -6 12 7 1 13 -10 17 -10 21
0z m221 -6 c-3 -9 -12 -12 -22 -9 -15 6 -9 11 25 22 1 1 0 -5 -3 -13z m52 -24
c-17 -16 -18 -16 -5 5 7 12 15 20 18 17 3 -2 -3 -12 -13 -22z m-106 7 c-12 -9
-11 -10 7 -6 15 3 20 1 16 -9 -2 -7 -12 -10 -21 -6 -14 5 -15 3 -5 -9 8 -9 9
-20 3 -29 -7 -11 -10 -12 -10 -2 0 7 -5 10 -10 7 -6 -4 -8 -10 -5 -15 10 -16
-12 -19 -31 -5 -12 9 -14 14 -6 15 9 0 10 5 2 19 -14 27 -13 36 4 21 12 -9 17
-7 28 9 7 12 20 21 28 21 13 0 13 -2 0 -11z m7115 1 c3 -6 -1 -7 -9 -4 -18 7
-21 14 -7 14 6 0 13 -4 16 -10z m-7065 -25 c-7 -9 -15 -13 -19 -10 -3 3 1 10
9 15 21 14 24 12 10 -5z m100 11 c0 -3 -4 -8 -10 -11 -5 -3 -10 -1 -10 4 0 6
5 11 10 11 6 0 10 -2 10 -4z m-553 -50 c0 -15 -21 -16 -34 -1 -4 4 -2 5 5 1 6
-4 12 -2 12 3 0 6 4 11 8 11 5 0 9 -6 9 -14z m426 -1 c-3 -9 -8 -14 -10 -11
-3 3 -2 9 2 15 9 16 15 13 8 -4z m-597 -20 c-1 -8 -5 -17 -8 -21 -5 -4 -4 16
1 34 3 9 9 -1 7 -13z m7744 -29 c0 -3 -4 -8 -10 -11 -5 -3 -10 -1 -10 4 0 6 5
11 10 11 6 0 10 -2 10 -4z m160 -26 c0 -5 -8 -10 -17 -10 -15 0 -16 2 -3 10
19 12 20 12 20 0z m-112 -25 c3 -3 -4 -4 -16 -2 -12 2 -24 6 -28 10 -4 3 4 4
16 2 12 -2 25 -7 28 -10z m39 -22 c2 -5 -8 -18 -22 -27 -14 -9 -25 -12 -25 -7
0 5 9 13 20 16 11 3 20 11 20 16 0 6 -4 7 -10 4 -5 -3 -10 -1 -10 5 0 14 22 8
27 -7z m-37 -8 c0 -2 -6 -5 -13 -8 -8 -3 -14 1 -14 8 0 7 6 11 14 8 7 -3 13
-6 13 -8z m73 -12 c-5 -12 -3 -14 7 -8 9 6 11 4 5 -4 -5 -9 -11 -9 -17 -3 -6
6 -7 15 -4 21 11 17 16 13 9 -6z m387 13 c0 -2 -8 -10 -17 -17 -16 -13 -17
-12 -4 4 13 16 21 21 21 13z m-540 -20 c0 -2 -8 -10 -17 -17 -16 -13 -17 -12
-4 4 13 16 21 21 21 13z m130 -4 c0 -5 -12 -14 -27 -21 l-28 -12 25 21 c29 22
30 23 30 12z m415 -30 c-3 -3 -11 0 -18 7 -9 10 -8 11 6 5 10 -3 15 -9 12 -12z
m-541 -8 c3 -8 2 -12 -4 -9 -6 3 -10 10 -10 16 0 14 7 11 14 -7z m143 10 c-3
-3 -12 -4 -19 -1 -8 3 -5 6 6 6 11 1 17 -2 13 -5z m-62 -22 c-3 -3 -11 0 -18
7 -9 10 -8 11 6 5 10 -3 15 -9 12 -12z m395 -4 c10 -21 10 -21 -3 -5 -22 27
-29 20 -12 -13 14 -26 14 -29 0 -24 -11 5 -13 2 -9 -9 3 -9 13 -14 22 -10 15
4 15 3 2 -6 -11 -8 -12 -11 -2 -11 7 0 11 -4 8 -9 -4 -5 -1 -12 4 -14 6 -3 5
-4 -2 -3 -7 2 -20 0 -29 -5 -8 -4 -22 -3 -30 2 -10 6 -11 9 -1 9 7 0 10 5 7
10 -4 6 -10 8 -15 5 -5 -3 -12 0 -16 6 -4 8 -9 7 -16 -2 -8 -11 -9 -11 -5 1 2
8 13 16 25 16 36 2 39 3 39 19 0 8 -5 11 -10 8 -6 -3 -7 -1 -3 6 4 6 12 9 17
6 5 -3 6 1 2 11 -5 15 -7 15 -15 0 -5 -9 -15 -16 -23 -16 -8 0 -18 -8 -24 -17
-5 -10 -13 -14 -17 -10 -4 4 7 21 24 37 18 16 32 26 32 22 0 -3 5 -1 12 6 17
17 26 15 38 -10z m-7966 -30 c-3 -4 -12 -8 -20 -8 -8 0 -14 4 -14 8 0 4 9 8
19 8 11 0 17 -4 15 -8z m7997 -15 c13 -16 12 -17 -3 -4 -10 7 -18 15 -18 17 0
8 8 3 21 -13z m-81 -1 c0 -5 -7 -9 -15 -9 -8 0 -15 4 -15 9 0 4 7 8 15 8 8 0
15 -4 15 -8z m-8040 -62 c0 -5 -5 -10 -11 -10 -5 0 -7 5 -4 10 3 6 8 10 11 10
2 0 4 -4 4 -10z m8117 -27 c0 -9 -4 -10 -12 -3 -7 5 -15 7 -18 3 -4 -3 -7 -1
-7 5 0 6 8 10 18 9 10 0 19 -7 19 -14z m32 -17 c9 -11 9 -16 -1 -22 -7 -4 -10
-4 -6 1 4 4 3 14 -3 22 -6 7 -9 13 -6 13 2 0 10 -6 16 -14z"/>
<path d="M4678 10869 c7 -9 10 -23 6 -32 -6 -16 10 -30 37 -32 10 -1 15 5 14
14 -2 9 -4 22 -4 29 -1 8 -7 12 -13 9 -7 -2 -22 3 -33 12 -18 15 -19 15 -7 0z
m32 -41 c0 7 5 10 11 6 8 -4 7 -9 -2 -15 -15 -9 -29 -3 -29 14 0 7 4 6 10 -3
7 -11 10 -11 10 -2z"/>
<path d="M6700 7700 c-9 -6 -10 -10 -3 -10 6 0 15 5 18 10 8 12 4 12 -15 0z"/>
<path d="M6589 7588 c-1 -7 -1 -16 0 -20 0 -4 -10 -10 -24 -14 -14 -3 -22 -10
-20 -15 3 -4 13 -5 22 -2 12 5 14 3 8 -7 -5 -9 -4 -11 4 -6 6 4 9 11 6 16 -3
5 -1 11 5 15 6 4 8 11 5 16 -4 5 -1 9 4 9 6 0 11 5 11 10 0 15 -20 12 -21 -2z"/>
<path d="M6594 7506 c1 -8 5 -18 8 -22 4 -3 5 1 4 10 -1 8 -5 18 -8 22 -4 3
-5 -1 -4 -10z"/>
<path d="M6575 7250 c-3 -5 -1 -10 4 -10 6 0 11 5 11 10 0 6 -2 10 -4 10 -3 0
-8 -4 -11 -10z"/>
<path d="M6570 7200 c-9 -6 -10 -10 -3 -10 6 0 15 5 18 10 8 12 4 12 -15 0z"/>
<path d="M6555 7150 c3 -5 8 -10 11 -10 2 0 4 5 4 10 0 6 -5 10 -11 10 -5 0
-7 -4 -4 -10z"/>
<path d="M959 7523 c-13 -16 -12 -17 4 -4 16 13 21 21 13 21 -2 0 -10 -8 -17
-17z"/>
<path d="M7511 5508 c6 -11 16 -21 24 -24 17 -7 27 -33 18 -47 -11 -17 -11
-30 0 -44 11 -15 30 -7 21 8 -3 5 0 17 8 26 9 12 9 15 1 9 -7 -4 -13 -2 -13 3
0 6 6 11 13 11 6 1 2 9 -9 19 -20 16 -20 18 -5 28 22 14 10 24 -33 27 -32 3
-34 1 -25 -16z m47 3 c11 -7 11 -9 -1 -14 -16 -6 -27 0 -27 15 0 10 11 10 28
-1z"/>
<path d="M7817 5443 c-11 -11 -8 -20 7 -20 8 0 12 6 9 14 -6 15 -7 15 -16 6z"/>
<path d="M7836 5337 c3 -10 9 -15 12 -12 3 3 0 11 -7 18 -10 9 -11 8 -5 -6z"/>
<path d="M7757 5333 c-10 -9 -9 -23 1 -23 5 0 9 7 9 15 0 17 -1 18 -10 8z"/>
<path d="M7788 5317 c4 -17 6 -18 14 -3 5 9 15 13 21 10 7 -4 9 -3 4 1 -4 5
-16 9 -26 10 -13 1 -17 -4 -13 -18z"/>
<path d="M7704 5282 c5 -8 1 -21 -10 -33 -17 -19 -18 -19 -34 7 -15 22 -18 23
-24 8 -3 -9 -2 -22 4 -29 8 -9 7 -15 -2 -18 -10 -4 -9 -6 1 -6 11 -1 10 -5 -5
-17 -10 -8 -14 -13 -8 -10 15 8 32 -14 29 -37 -3 -17 29 -47 50 -47 5 1 -1 7
-14 14 -14 8 -19 16 -13 20 6 3 13 2 17 -4 3 -5 16 -10 28 -9 21 1 21 1 -2 8
-21 6 -22 8 -7 20 13 11 16 11 16 1 0 -8 3 -11 6 -8 3 4 -2 20 -10 36 -12 23
-13 32 -3 35 7 3 4 6 -6 6 -10 1 -15 6 -12 11 4 6 12 7 18 3 8 -4 7 -1 -1 9
-9 12 -10 17 -1 20 7 2 5 9 -7 18 -12 11 -15 11 -10 2z m-1 -44 c-11 -19 -10
-31 4 -46 17 -17 16 -27 -2 -42 -8 -7 -15 -9 -15 -5 0 4 -7 2 -15 -5 -12 -10
-13 -8 -10 10 5 28 16 39 22 23 3 -7 10 -13 16 -13 7 1 2 9 -10 19 -14 12 -18
22 -12 28 6 6 5 10 -5 10 -8 0 -13 -8 -11 -19 2 -10 0 -18 -6 -18 -5 0 -7 10
-5 23 1 12 8 22 14 22 6 0 17 6 24 13 6 6 14 12 16 12 2 0 0 -6 -5 -12z"/>
<path d="M7801 5264 c0 -11 3 -14 6 -6 3 7 2 16 -1 19 -3 4 -6 -2 -5 -13z"/>
<path d="M7852 5202 c-6 -2 -10 -8 -6 -13 3 -5 -2 -9 -11 -9 -9 0 -14 -4 -10
-9 9 -15 -51 -41 -64 -28 -8 8 -11 8 -11 -1 0 -11 5 -13 40 -16 8 -1 21 7 28
17 9 12 18 15 25 9 7 -5 21 -6 31 -2 19 6 19 7 -2 12 -15 4 -20 11 -16 22 3 9
10 13 15 10 5 -3 7 -10 4 -15 -4 -5 -2 -9 4 -9 5 0 13 5 16 10 3 6 1 10 -5 10
-6 0 -9 4 -6 8 5 9 -11 11 -32 4z"/>
<path d="M7796 5185 c-8 -23 -8 -25 8 -25 8 0 13 7 12 15 -3 23 -13 27 -20 10z"/>
<path d="M7729 5043 c-10 -11 -10 -14 -1 -9 8 5 12 1 12 -11 0 -15 2 -16 10
-3 6 10 6 16 0 18 -6 2 -8 8 -4 13 9 15 -3 10 -17 -8z"/>
<path d="M7863 5039 c-1 -14 1 -19 5 -12 6 9 11 6 20 -8 12 -19 11 -20 -7 -14
-10 3 -22 1 -26 -4 -4 -7 1 -8 11 -4 16 6 16 5 2 -16 -9 -13 -14 -29 -11 -36
5 -14 -13 -15 -34 -2 -7 5 -13 4 -13 -1 0 -6 7 -13 16 -16 14 -5 14 -9 3 -22
-10 -13 -10 -17 0 -24 8 -5 9 -10 3 -14 -6 -3 -12 0 -15 6 -3 7 -5 4 -6 -7 -2
-43 -5 -55 -14 -55 -5 0 -6 7 -3 16 6 14 4 15 -9 4 -15 -12 -14 -15 7 -26 19
-10 26 -10 43 4 11 9 14 10 8 2 -15 -17 -17 -34 -3 -25 6 3 10 1 10 -5 0 -7
-8 -9 -20 -5 -11 4 -20 2 -20 -4 0 -6 -5 -11 -11 -11 -6 0 -9 7 -5 15 5 13 2
14 -17 4 -19 -11 -21 -10 -9 3 9 11 10 18 2 23 -6 3 -8 11 -5 16 4 5 0 9 -7 9
-10 0 -9 3 2 11 13 9 13 10 0 6 -8 -2 -14 -13 -12 -23 2 -10 3 -26 4 -34 2
-37 80 -121 96 -105 3 3 0 5 -6 5 -7 0 -12 5 -12 11 0 5 4 8 8 5 5 -3 9 1 9 9
0 20 -7 19 -22 -2 -11 -15 -13 -13 -11 14 1 33 16 59 16 30 0 -21 10 -21 35
-3 20 15 29 46 13 46 -6 0 -8 -7 -5 -15 4 -8 1 -17 -6 -21 -7 -4 -9 -4 -5 1 4
4 3 16 -2 25 -7 13 -6 20 5 24 8 3 15 11 15 18 0 8 -3 9 -8 3 -4 -6 -17 -12
-29 -12 -25 -2 -22 19 9 51 10 11 15 22 12 25 -4 3 -9 0 -11 -7 -3 -6 -9 -9
-15 -6 -5 4 0 16 13 30 12 13 20 27 16 30 -9 9 11 44 25 44 7 0 6 -5 -2 -15
-11 -13 -10 -14 4 -9 14 5 20 16 18 35 -1 9 57 4 65 -6 5 -4 2 -5 -6 0 -9 5
-12 4 -8 -2 3 -5 0 -10 -8 -10 -8 0 -15 5 -15 11 0 6 -5 3 -11 -7 -6 -10 -8
-21 -5 -24 3 -4 6 0 6 8 0 11 2 11 10 -1 7 -11 10 -11 10 -2 0 7 4 11 10 7 5
-3 7 -13 4 -23 -5 -13 -4 -14 4 -3 6 8 12 9 16 3 3 -6 2 -14 -4 -17 -8 -5 -8
-11 0 -20 7 -8 8 -20 4 -27 -5 -10 -4 -10 6 -1 11 10 11 15 0 28 -11 14 -7 19
13 16 7 -1 11 14 8 38 -2 8 2 10 10 5 8 -4 10 -3 5 5 -4 6 -11 9 -16 6 -5 -3
-16 5 -25 18 -14 22 -35 27 -71 16 -6 -2 -20 7 -30 19 l-20 24 -1 -23z m132
-70 c-4 -5 -1 -9 6 -9 7 0 9 -3 6 -6 -9 -9 -38 16 -31 27 3 5 10 7 15 3 5 -3
7 -10 4 -15z m-185 -241 c0 -14 -19 1 -31 25 -12 22 -12 22 10 3 11 -11 21
-23 21 -28z"/>
<path d="M7791 5034 c0 -11 3 -14 6 -6 3 7 2 16 -1 19 -3 4 -6 -2 -5 -13z"/>
<path d="M7802 4994 c10 -10 20 -16 22 -13 3 3 -5 11 -17 18 -21 13 -21 12 -5
-5z"/>
<path d="M7745 4970 c-4 -6 -11 -8 -16 -5 -5 4 -10 -1 -10 -9 -1 -9 -2 -23 -3
-31 0 -8 2 -14 5 -12 3 1 13 -4 22 -12 11 -9 17 -10 17 -2 0 10 -12 15 -31 13
-3 -1 -6 5 -6 13 0 11 5 10 24 -2 27 -18 29 -31 8 -39 -22 -9 -18 -24 5 -24
11 0 19 5 18 11 -2 6 4 14 12 16 13 4 13 3 0 -6 -8 -6 -11 -11 -7 -11 4 0 3
-9 -3 -20 -10 -19 -10 -20 9 -8 11 6 18 16 15 20 -3 4 0 17 6 28 13 24 -10 56
-27 39 -7 -7 -12 -5 -17 6 -3 9 -2 13 4 10 6 -3 10 -1 10 4 0 6 -8 11 -17 11
-15 0 -16 2 -3 10 9 6 10 10 3 10 -6 0 -15 -5 -18 -10z m59 -58 c3 -5 -1 -9
-9 -9 -8 0 -12 4 -9 9 3 4 7 8 9 8 2 0 6 -4 9 -8z"/>
<path d="M7835 4969 c-4 -6 -5 -12 -2 -15 2 -3 7 2 10 11 7 17 1 20 -8 4z"/>
<path d="M7894 4949 c-3 -6 -1 -16 5 -22 9 -9 10 -7 5 7 -6 15 -4 17 6 11 9
-5 11 -4 6 3 -9 15 -13 15 -22 1z"/>
<path d="M7876 4905 c4 -8 8 -15 10 -15 2 0 4 7 4 15 0 8 -4 15 -10 15 -5 0
-7 -7 -4 -15z"/>
<path d="M8010 4910 c0 -5 5 -10 10 -10 6 0 10 5 10 10 0 6 -4 10 -10 10 -5 0
-10 -4 -10 -10z"/>
<path d="M7955 4901 c-3 -5 -2 -12 3 -15 5 -3 9 1 9 9 0 17 -3 19 -12 6z"/>
<path d="M7900 4881 c-8 -6 -19 -7 -25 -4 -5 4 -7 3 -3 -2 4 -4 0 -14 -10 -22
-9 -8 -1 -5 19 6 20 11 40 17 44 13 5 -4 5 -1 1 6 -8 14 -7 14 -26 3z"/>
<path d="M8035 4879 c4 -5 1 -17 -7 -26 -12 -15 -11 -15 10 -2 26 16 28 25 6
33 -9 3 -12 2 -9 -5z"/>
<path d="M7952 4864 c10 -10 20 -16 22 -13 3 3 -5 11 -17 18 -21 13 -21 12 -5
-5z"/>
<path d="M7899 4858 c-11 -40 1 -73 17 -47 4 7 3 9 -4 5 -7 -4 -10 1 -9 14 1
12 8 20 20 20 11 0 15 -4 11 -12 -4 -7 -3 -8 5 -4 16 10 4 26 -20 26 -10 0
-19 -1 -20 -2z"/>
<path d="M7955 4830 c-3 -5 -1 -10 4 -10 6 0 11 5 11 10 0 6 -2 10 -4 10 -3 0
-8 -4 -11 -10z"/>
<path d="M8026 4808 c3 -4 9 -8 15 -8 5 0 9 4 9 8 0 5 -7 9 -15 9 -8 0 -12 -4
-9 -9z"/>
<path d="M7976 4797 c3 -10 9 -15 12 -12 3 3 0 11 -7 18 -10 9 -11 8 -5 -6z"/>
<path d="M7920 4789 c0 -5 -4 -8 -9 -5 -13 9 -7 -22 7 -36 7 -7 12 -8 12 -4 0
5 6 3 14 -4 8 -6 13 -17 10 -25 -3 -7 0 -16 6 -20 8 -5 6 -11 -6 -19 -12 -9
-14 -15 -5 -20 6 -4 14 0 17 8 3 9 10 14 14 11 4 -3 13 2 20 10 9 10 9 15 1
15 -6 0 -11 -5 -11 -11 0 -5 -5 -7 -10 -4 -8 5 -7 12 2 23 10 12 10 14 1 8
-13 -7 -16 0 -16 36 0 10 -2 16 -6 14 -9 -6 -31 21 -24 28 4 3 1 6 -5 6 -7 0
-12 -5 -12 -11z m26 -31 c15 -19 16 -20 2 -9 -10 7 -18 10 -18 7 0 -4 -5 -4
-10 -1 -6 4 -8 11 -5 16 8 12 9 12 31 -13z"/>
<path d="M8184 4672 c-9 -14 -8 -22 2 -36 7 -11 11 -22 9 -27 -3 -4 2 -6 12
-5 20 3 25 42 6 57 -7 6 -10 15 -7 20 3 5 1 9 -3 9 -5 0 -13 -8 -19 -18z m31
-43 c2 -21 1 -21 -16 2 -10 13 -15 27 -12 32 8 13 26 -9 28 -34z"/>
<path d="M906 4921 c-4 -5 -2 -12 3 -15 5 -4 12 -2 15 3 4 5 2 12 -3 15 -5 4
-12 2 -15 -3z"/>
<path d="M836 4903 c-6 -14 -5 -15 5 -6 7 7 10 15 7 18 -3 3 -9 -2 -12 -12z"/>
<path d="M569 4804 c-17 -21 -20 -42 -7 -51 6 -3 8 -1 5 4 -8 13 17 35 29 25
4 -4 3 0 -4 9 -6 9 -9 19 -5 22 3 4 4 7 1 7 -3 0 -12 -7 -19 -16z"/>
<path d="M8179 4476 c6 -7 8 -16 4 -20 -4 -4 1 -4 10 0 22 8 17 26 -7 30 -13
2 -14 -1 -7 -10z"/>
<path d="M4650 10910 c-9 -6 -10 -10 -3 -10 6 0 15 5 18 10 8 12 4 12 -15 0z"/>
<path d="M4066 10870 c5 -8 9 -21 10 -28 2 -8 5 -17 8 -20 4 -3 5 4 3 16 -2
12 -9 28 -17 35 -10 10 -11 9 -4 -3z"/>
<path d="M4800 10870 c-9 -6 -10 -10 -3 -10 6 0 15 5 18 10 8 12 4 12 -15 0z"/>
<path d="M4295 10859 c-4 -6 -5 -12 -2 -15 2 -3 7 2 10 11 7 17 1 20 -8 4z"/>
<path d="M4935 10861 c-3 -5 -2 -12 3 -15 5 -3 9 1 9 9 0 17 -3 19 -12 6z"/>
<path d="M4207 10849 c7 -7 15 -10 18 -7 3 3 -2 9 -12 12 -14 6 -15 5 -6 -5z"/>
<path d="M4778 10848 c5 -5 16 -8 23 -6 8 3 3 7 -10 11 -17 4 -21 3 -13 -5z"/>
<path d="M4966 10848 c3 -5 10 -6 15 -3 13 9 11 12 -6 12 -8 0 -12 -4 -9 -9z"/>
<path d="M4034 10824 c1 -8 6 -17 11 -21 4 -5 5 -2 0 6 -6 11 -4 13 8 8 10 -4
14 -2 11 7 -6 17 -32 16 -30 0z"/>
<path d="M4259 10823 c-12 -16 -12 -17 2 -6 9 7 20 9 24 5 5 -4 5 -1 1 6 -9
16 -11 15 -27 -5z"/>
<path d="M5110 10829 c0 -5 5 -7 10 -4 6 3 10 8 10 11 0 2 -4 4 -10 4 -5 0
-10 -5 -10 -11z"/>
<path d="M3990 10805 c5 -6 8 -21 5 -34 -2 -13 0 -19 6 -15 6 3 8 8 5 11 -2 3
-1 15 4 27 6 17 4 22 -11 22 -12 0 -15 -4 -9 -11z"/>
<path d="M3651 10793 c-2 -31 13 -36 35 -10 l19 22 -22 -18 c-21 -18 -21 -18
-26 5 -4 22 -4 22 -6 1z"/>
<path d="M4079 10808 c-8 -26 -5 -36 9 -31 11 5 13 3 7 -7 -6 -9 -4 -11 5 -5
10 6 10 11 -3 20 -9 7 -14 15 -10 18 3 4 3 7 0 7 -4 0 -7 -1 -8 -2z"/>
<path d="M4290 10806 c0 -2 8 -10 18 -17 15 -13 16 -12 3 4 -13 16 -21 21 -21
13z"/>
<path d="M5036 10797 c3 -10 9 -15 12 -12 3 3 0 11 -7 18 -10 9 -11 8 -5 -6z"/>
<path d="M3716 10789 c2 -4 -1 -9 -8 -11 -6 -2 -12 -16 -12 -30 -1 -15 2 -24
7 -21 4 3 7 12 5 21 -2 10 5 24 16 33 16 13 16 16 3 16 -9 0 -14 -4 -11 -8z"/>
<path d="M4126 10787 c3 -10 9 -15 12 -12 3 3 0 11 -7 18 -10 9 -11 8 -5 -6z"/>
<path d="M4178 10781 c5 -14 3 -14 -11 -2 -9 7 -17 11 -17 8 0 -2 6 -10 14
-16 12 -10 17 -8 25 7 7 14 7 19 -4 19 -8 0 -11 -7 -7 -16z"/>
<path d="M4333 10793 c11 -11 -14 -34 -27 -24 -6 5 -20 5 -31 0 -18 -8 -18 -8
4 -6 13 1 26 -3 28 -10 3 -8 -3 -11 -16 -8 -26 5 -35 -9 -17 -24 11 -10 20 -5
41 24 23 30 29 33 39 20 8 -10 15 -12 26 -5 13 9 13 10 0 10 -13 0 -13 1 0 11
12 8 10 9 -7 4 -14 -4 -23 -2 -23 4 0 6 -5 11 -12 11 -6 0 -8 -3 -5 -7z m-33
-59 c0 -8 -19 -13 -24 -6 -3 5 1 9 9 9 8 0 15 -2 15 -3z"/>
<path d="M5096 10782 c-2 -4 4 -8 15 -8 10 0 19 4 19 8 0 4 -6 8 -14 8 -8 0
-17 -4 -20 -8z"/>
<path d="M3575 10770 c3 -5 8 -10 11 -10 2 0 4 5 4 10 0 6 -5 10 -11 10 -5 0
-7 -4 -4 -10z"/>
<path d="M3731 10757 c-13 -21 -12 -21 5 -5 10 10 16 20 13 22 -3 3 -11 -5
-18 -17z"/>
<path d="M4203 10761 c-17 -11 -33 -17 -36 -15 -10 11 -56 13 -62 4 -4 -6 -11
-7 -17 -4 -6 4 -3 -5 8 -19 10 -15 26 -26 34 -26 11 0 10 4 -5 16 -16 12 -16
14 -3 10 10 -3 20 -2 23 3 8 13 26 13 23 1 -2 -5 2 -9 7 -9 19 1 35 10 35 20
0 6 8 17 18 24 25 20 12 17 -25 -5z m-59 -20 c-8 -8 -43 -8 -38 0 2 4 13 7 24
6 10 -1 17 -3 14 -6z m56 5 c0 -2 -8 -10 -17 -17 -16 -13 -17 -12 -4 4 13 16
21 21 21 13z"/>
<path d="M5134 10759 c-3 -5 1 -6 9 -3 8 3 18 1 22 -5 4 -7 -6 -11 -26 -11
-27 0 -30 -2 -19 -15 10 -12 16 -13 27 -4 11 9 19 7 40 -12 15 -13 21 -16 14
-6 -11 14 -11 17 0 17 8 0 6 5 -6 13 -10 8 -16 18 -12 23 3 5 -6 10 -19 10
-13 1 -27 -2 -30 -7z"/>
<path d="M3622 10752 c-8 -6 -2 -9 18 -9 20 0 26 3 18 9 -7 4 -15 8 -18 8 -3
0 -11 -4 -18 -8z"/>
<path d="M3787 10749 c7 -7 15 -10 18 -7 3 3 -2 9 -12 12 -14 6 -15 5 -6 -5z"/>
<path d="M3960 10756 c0 -2 8 -10 18 -17 15 -13 16 -12 3 4 -13 16 -21 21 -21
13z"/>
<path d="M4046 10748 c3 -4 9 -8 15 -8 5 0 9 4 9 8 0 5 -7 9 -15 9 -8 0 -12
-4 -9 -9z"/>
<path d="M3416 10728 c3 -5 10 -6 15 -3 13 9 11 12 -6 12 -8 0 -12 -4 -9 -9z"/>
<path d="M3750 10730 c0 -5 5 -10 10 -10 6 0 10 5 10 10 0 6 -4 10 -10 10 -5
0 -10 -4 -10 -10z"/>
<path d="M3935 10730 c-3 -5 -1 -10 4 -10 6 0 11 5 11 10 0 6 -2 10 -4 10 -3
0 -8 -4 -11 -10z"/>
<path d="M4017 10714 c6 -15 23 -19 23 -5 0 5 -7 11 -14 14 -10 4 -13 1 -9 -9z"/>
<path d="M3366 10709 c4 -8 30 -6 38 2 3 3 -5 5 -19 5 -13 0 -22 -3 -19 -7z"/>
<path d="M3450 10710 c0 -5 5 -10 11 -10 5 0 7 5 4 10 -3 6 -8 10 -11 10 -2 0
-4 -4 -4 -10z"/>
<path d="M3970 10710 c-9 -6 -10 -10 -3 -10 6 0 15 5 18 10 8 12 4 12 -15 0z"/>
<path d="M5287 10679 c-9 -6 -15 -14 -12 -19 8 -13 32 -2 32 15 0 8 -1 15 -1
15 -1 0 -9 -5 -19 -11z"/>
<path d="M3380 10665 c7 -8 17 -15 22 -15 5 0 3 7 -6 15 -8 8 -18 15 -22 15
-3 0 -1 -7 6 -15z"/>
<path d="M3306 10648 c3 -5 10 -6 15 -3 13 9 11 12 -6 12 -8 0 -12 -4 -9 -9z"/>
<path d="M3580 10624 c0 -8 5 -12 10 -9 6 4 8 11 5 16 -9 14 -15 11 -15 -7z"/>
<path d="M5386 10621 c-8 -12 23 -56 32 -46 3 2 10 -2 16 -10 7 -10 16 -12 26
-5 12 7 11 10 -5 16 -10 4 -29 19 -40 33 -16 17 -24 21 -29 12z m34 -33 c0 -5
-7 -3 -15 6 -8 8 -15 18 -15 22 0 3 7 1 15 -6 8 -7 15 -17 15 -22z"/>
<path d="M3255 10611 c3 -5 1 -12 -5 -16 -5 -3 -10 -12 -10 -18 0 -7 7 -3 15
7 18 23 19 36 4 36 -5 0 -8 -4 -4 -9z"/>
<path d="M5466 10588 c3 -5 9 -7 12 -4 3 3 12 0 21 -6 13 -10 14 -10 4 2 -15
16 -46 23 -37 8z"/>
<path d="M3150 10549 c0 -5 5 -7 10 -4 6 3 10 8 10 11 0 2 -4 4 -10 4 -5 0
-10 -5 -10 -11z"/>
<path d="M5515 10550 c3 -5 11 -10 16 -10 6 0 7 5 4 10 -3 6 -11 10 -16 10 -6
0 -7 -4 -4 -10z"/>
<path d="M3079 10523 c-13 -16 -12 -17 4 -4 9 7 17 15 17 17 0 8 -8 3 -21 -13z"/>
<path d="M5537 10516 c-4 -10 -12 -14 -18 -10 -8 5 -9 3 -4 -5 5 -9 10 -10 18
-2 7 7 14 5 23 -7 10 -14 15 -15 26 -4 11 11 10 12 -3 7 -10 -4 -19 2 -26 16
-8 20 -10 21 -16 5z"/>
<path d="M3015 10491 c-3 -5 -2 -12 3 -15 5 -3 9 1 9 9 0 17 -3 19 -12 6z"/>
<path d="M2975 10450 c3 -5 8 -10 11 -10 2 0 4 5 4 10 0 6 -5 10 -11 10 -5 0
-7 -4 -4 -10z"/>
<path d="M2856 10437 c3 -10 9 -15 12 -12 3 3 0 11 -7 18 -10 9 -11 8 -5 -6z"/>
<path d="M2894 10428 c3 -10 -1 -18 -12 -21 -16 -4 -16 -5 0 -6 22 -1 29 11
16 29 -8 12 -9 12 -4 -2z"/>
<path d="M2922 10405 c-7 -8 -9 -15 -4 -15 5 0 15 7 22 15 16 19 -1 19 -18 0z"/>
<path d="M2855 10381 c-3 -6 4 -15 15 -21 13 -7 20 -7 20 0 0 5 -7 10 -16 10
-8 0 -12 5 -9 10 3 6 4 10 1 10 -3 0 -7 -4 -11 -9z"/>
<path d="M2813 10344 c0 -10 4 -11 12 -4 7 6 21 7 31 4 11 -4 16 -4 12 1 -13
14 -55 14 -55 -1z"/>
<path d="M2896 10342 c-4 -12 -12 -19 -18 -16 -6 4 -6 -2 1 -15 7 -11 14 -21
17 -21 3 0 2 5 -1 10 -4 6 -1 17 5 25 7 8 10 20 8 27 -3 8 -8 4 -12 -10z"/>
<path d="M2693 10143 c0 -10 4 -10 16 -1 9 7 18 13 20 15 2 1 -5 1 -16 0 -11
0 -20 -7 -20 -14z"/>
<path d="M2640 10130 c-12 -7 -10 -9 7 -7 12 0 19 5 17 9 -6 10 -6 10 -24 -2z"/>
<path d="M5835 10110 c3 -5 8 -10 11 -10 2 0 4 5 4 10 0 6 -5 10 -11 10 -5 0
-7 -4 -4 -10z"/>
<path d="M2546 10072 c-2 -4 4 -8 14 -8 10 0 16 4 14 8 -3 4 -9 8 -14 8 -5 0
-11 -4 -14 -8z"/>
<path d="M2663 10065 c1 -5 -4 -9 -11 -7 -8 1 -11 -2 -7 -8 4 -6 15 -4 31 6
29 20 30 23 5 21 -11 0 -19 -6 -18 -12z"/>
<path d="M2455 9970 c-3 -5 -1 -10 4 -10 6 0 11 5 11 10 0 6 -2 10 -4 10 -3 0
-8 -4 -11 -10z"/>
<path d="M2437 9923 c-10 -9 -9 -23 1 -23 5 0 9 7 9 15 0 17 -1 18 -10 8z"/>
<path d="M2405 9830 c-3 -5 -1 -10 5 -10 6 0 8 -5 4 -12 -4 -7 -3 -8 4 -4 6 4
9 13 5 21 -6 18 -10 19 -18 5z"/>
<path d="M6041 9833 c-1 -17 16 -25 25 -12 4 7 3 9 -4 5 -5 -3 -13 0 -15 6 -4
9 -6 10 -6 1z"/>
<path d="M2347 9789 c7 -7 15 -10 18 -7 3 3 -2 9 -12 12 -14 6 -15 5 -6 -5z"/>
<path d="M6110 9793 c0 -6 8 -17 18 -24 16 -13 16 -13 2 6 -8 11 -16 22 -17
24 -2 2 -3 0 -3 -6z"/>
<path d="M6156 9728 c3 -4 0 -8 -7 -8 -7 0 -10 -3 -6 -6 3 -3 16 1 28 9 22 16
22 16 1 14 -11 0 -18 -5 -16 -9z"/>
<path d="M2273 9715 c0 -8 4 -12 9 -9 5 3 6 10 3 15 -9 13 -12 11 -12 -6z"/>
<path d="M6175 9711 c-3 -5 -2 -12 3 -15 5 -3 9 1 9 9 0 17 -3 19 -12 6z"/>
<path d="M2250 9665 c0 -9 5 -15 11 -13 6 2 11 8 11 13 0 5 -5 11 -11 13 -6 2
-11 -4 -11 -13z"/>
<path d="M6212 9668 c3 -7 13 -13 24 -14 16 -1 16 0 1 3 -9 3 -15 9 -12 14 4
5 1 9 -5 9 -7 0 -10 -6 -8 -12z"/>
<path d="M6230 9610 c34 -42 43 -49 34 -25 -4 8 -11 15 -17 15 -6 0 -7 3 -4 6
4 4 -3 15 -15 25 -33 29 -32 23 2 -21z"/>
<path d="M6250 9636 c0 -2 7 -7 16 -10 8 -3 12 -2 9 4 -6 10 -25 14 -25 6z"/>
<path d="M6293 9625 c0 -8 4 -12 9 -9 4 3 8 9 8 15 0 5 -4 9 -8 9 -5 0 -9 -7
-9 -15z"/>
<path d="M2150 9550 c-13 -8 -12 -10 3 -10 9 0 17 5 17 10 0 12 -1 12 -20 0z"/>
<path d="M2076 9467 c3 -10 9 -15 12 -12 3 3 0 11 -7 18 -10 9 -11 8 -5 -6z"/>
<path d="M1990 9389 c0 -5 5 -7 10 -4 6 3 10 8 10 11 0 2 -4 4 -10 4 -5 0 -10
-5 -10 -11z"/>
<path d="M6470 9350 c0 -5 5 -10 11 -10 5 0 7 5 4 10 -3 6 -8 10 -11 10 -2 0
-4 -4 -4 -10z"/>
<path d="M6496 9285 c4 -8 8 -15 10 -15 2 0 4 7 4 15 0 8 -4 15 -10 15 -5 0
-7 -7 -4 -15z"/>
<path d="M1944 9226 c-13 -14 -14 -46 -2 -46 7 0 10 8 7 26 0 4 5 10 11 14 7
4 8 10 4 13 -5 3 -14 0 -20 -7z"/>
<path d="M7175 9161 c-3 -5 -2 -12 3 -15 5 -3 9 1 9 9 0 17 -3 19 -12 6z"/>
<path d="M7010 9050 c0 -5 5 -10 11 -10 5 0 7 5 4 10 -3 6 -8 10 -11 10 -2 0
-4 -4 -4 -10z"/>
<path d="M1887 8986 c-4 -10 -1 -13 8 -9 8 3 12 9 9 14 -7 12 -11 11 -17 -5z"/>
<path d="M1813 8945 c0 -8 4 -12 9 -9 5 3 6 10 3 15 -9 13 -12 11 -12 -6z"/>
<path d="M1776 8928 c3 -5 10 -6 15 -3 13 9 11 12 -6 12 -8 0 -12 -4 -9 -9z"/>
<path d="M1754 8895 c1 -8 8 -21 16 -28 12 -10 12 -9 2 4 -6 9 -9 18 -6 21 3
3 1 9 -4 12 -6 3 -9 -1 -8 -9z"/>
<path d="M7293 8835 c0 -8 4 -12 9 -9 5 3 6 10 3 15 -9 13 -12 11 -12 -6z"/>
<path d="M1696 8755 c-3 -8 -1 -15 4 -15 6 0 10 7 10 15 0 8 -2 15 -4 15 -2 0
-6 -7 -10 -15z"/>
<path d="M7335 8730 c-3 -6 1 -7 9 -4 18 7 21 14 7 14 -6 0 -13 -4 -16 -10z"/>
<path d="M7330 8670 c0 -5 5 -10 10 -10 6 0 10 5 10 10 0 6 -4 10 -10 10 -5 0
-10 -4 -10 -10z"/>
<path d="M7367 8673 c-4 -3 -2 -12 5 -20 9 -11 7 -13 -14 -9 -17 3 -25 0 -25
-10 0 -10 4 -11 13 -3 8 7 14 7 19 -1 3 -5 2 -10 -4 -10 -5 0 -9 -9 -8 -20 1
-11 5 -20 9 -20 8 0 12 16 9 33 0 4 4 7 10 7 5 0 8 4 4 9 -3 5 -1 12 4 16 6 3
8 12 4 20 -6 16 -16 19 -26 8z"/>
<path d="M1665 8620 c6 -10 3 -12 -11 -7 -18 7 -18 7 0 -8 11 -8 17 -16 13
-16 -4 -1 -11 -2 -16 -3 -5 0 -11 -3 -13 -6 -1 -3 -1 -4 1 -3 2 2 10 -5 16
-14 11 -15 14 -14 25 7 10 18 10 25 1 28 -6 2 -9 8 -6 12 3 5 0 12 -6 16 -8 5
-9 3 -4 -6z"/>
<path d="M1590 8206 c0 -2 7 -7 16 -10 8 -3 12 -2 9 4 -6 10 -25 14 -25 6z"/>
<path d="M1553 8115 c-7 -20 27 -59 40 -46 13 13 -2 33 -20 27 -12 -5 -14 -1
-10 14 6 23 -1 27 -10 5z"/>
<path d="M1196 7823 c-6 -14 -5 -15 5 -6 7 7 10 15 7 18 -3 3 -9 -2 -12 -12z"/>
<path d="M1030 7696 c0 -2 7 -7 16 -10 8 -3 12 -2 9 4 -6 10 -25 14 -25 6z"/>
<path d="M996 7637 c3 -10 9 -15 12 -12 3 3 0 11 -7 18 -10 9 -11 8 -5 -6z"/>
<path d="M900 7555 c0 -2 6 -8 13 -14 10 -8 14 -7 14 2 0 8 -6 14 -14 14 -7 0
-13 -1 -13 -2z"/>
<path d="M890 7530 c0 -5 5 -10 11 -10 5 0 7 5 4 10 -3 6 -8 10 -11 10 -2 0
-4 -4 -4 -10z"/>
<path d="M875 7500 c-3 -5 -1 -10 4 -10 6 0 11 5 11 10 0 6 -2 10 -4 10 -3 0
-8 -4 -11 -10z"/>
<path d="M839 7483 c-13 -16 -12 -17 4 -4 16 13 21 21 13 21 -2 0 -10 -8 -17
-17z"/>
<path d="M817 7429 c7 -7 15 -10 18 -7 3 3 -2 9 -12 12 -14 6 -15 5 -6 -5z"/>
<path d="M790 7410 c0 -5 5 -10 10 -10 6 0 10 5 10 10 0 6 -4 10 -10 10 -5 0
-10 -4 -10 -10z"/>
<path d="M615 7290 c-3 -5 -1 -10 4 -10 6 0 11 5 11 10 0 6 -2 10 -4 10 -3 0
-8 -4 -11 -10z"/>
<path d="M520 7210 c-9 -6 -10 -10 -3 -10 6 0 15 5 18 10 8 12 4 12 -15 0z"/>
<path d="M439 4778 c-5 -16 -4 -46 2 -42 4 2 7 13 6 24 -1 17 -5 26 -8 18z"/>
<path d="M119 4747 c-7 -16 -6 -47 1 -47 6 0 9 6 8 13 -2 7 7 11 20 11 17 -1
20 2 13 9 -9 9 -39 19 -42 14z"/>
<path d="M215 4741 c-3 -5 -2 -12 3 -15 5 -3 9 1 9 9 0 17 -3 19 -12 6z"/>
<path d="M159 4683 c-13 -17 -13 -17 6 -3 11 8 22 16 24 17 2 2 0 3 -6 3 -6 0
-17 -8 -24 -17z"/>
<path d="M376 4691 c9 -9 34 -9 34 -1 0 5 -9 8 -20 7 -10 -1 -17 -3 -14 -6z"/>
<path d="M32 4665 c3 -28 11 -24 13 5 1 11 -2 20 -7 20 -4 0 -7 -11 -6 -25z"/>
<path d="M126 4632 c-3 -5 1 -9 9 -9 8 0 12 4 9 9 -3 4 -7 8 -9 8 -2 0 -6 -4
-9 -8z"/>
<path d="M30 4615 c0 -7 30 -13 34 -7 3 4 -4 9 -15 9 -10 1 -19 0 -19 -2z"/>
<path d="M210 4610 c0 -5 5 -10 11 -10 5 0 7 5 4 10 -3 6 -8 10 -11 10 -2 0
-4 -4 -4 -10z"/>
<path d="M225 4570 c-2 -4 7 -6 21 -4 35 3 41 12 9 12 -14 0 -27 -4 -30 -8z"/>
<path d="M159 4543 c-13 -16 -12 -17 4 -4 9 7 17 15 17 17 0 8 -8 3 -21 -13z"/>
</g>
</svg>
